<?xml version="1.0" standalone="no"?>
<!DOCTYPE svg PUBLIC "-//W3C//DTD SVG 20010904//EN"
 "http://www.w3.org/TR/2001/REC-SVG-20010904/DTD/svg10.dtd">
<svg version="1.0" xmlns="http://www.w3.org/2000/svg"
 width="320.000000pt" height="320.000000pt" viewBox="0 0 320.000000 320.000000"
 preserveAspectRatio="xMidYMid meet">
<metadata>
Created by potrace 1.14, written by Peter Selinger 2001-2017
</metadata>
<g transform="translate(0.000000,320.000000) scale(0.100000,-0.100000)"
fill="#000000" stroke="none">
<path d="M125 3190 c-4 -6 5 -10 20 -10 15 0 24 4 20 10 -3 6 -12 10 -20 10
-8 0 -17 -4 -20 -10z"/>
<path d="M218 3179 c-10 -11 -18 -25 -18 -33 0 -8 -4 -18 -10 -21 -15 -9 -13
-18 15 -59 l24 -36 -25 -6 c-18 -5 -22 -10 -15 -17 6 -6 11 -15 11 -19 0 -5
-11 3 -25 17 -25 24 -52 35 -40 15 3 -5 -1 -10 -10 -10 -9 0 -14 -3 -12 -7 6
-10 -19 -34 -26 -27 -17 17 -18 -130 -1 -157 3 -5 -2 -29 -11 -52 -9 -24 -15
-47 -14 -53 5 -27 -1 -36 -16 -24 -13 11 -18 10 -30 -6 -15 -20 -21 -75 -8
-73 38 6 42 -11 11 -42 -13 -12 -17 -19 -11 -15 10 5 13 -4 13 -34 0 -25 -4
-39 -10 -35 -14 8 -13 -8 1 -22 6 -6 18 -9 25 -6 10 4 12 0 8 -11 -5 -12 0
-16 17 -17 13 -1 27 -1 31 0 5 0 8 -3 8 -9 0 -5 4 -10 10 -10 15 0 5 45 -11
46 -34 2 -39 5 -39 19 0 8 9 20 20 27 11 7 20 22 20 34 0 11 9 30 20 42 11 12
20 27 20 34 0 7 12 18 26 25 24 11 26 10 21 -7 -3 -12 1 -24 11 -30 16 -9 16
-9 0 -10 -9 0 -19 -4 -22 -9 -8 -12 4 -41 16 -41 6 0 5 7 -2 15 -7 9 -10 18
-6 22 11 11 28 -14 30 -44 1 -15 13 -40 28 -56 31 -33 40 -71 22 -94 -18 -24
-17 -33 1 -33 8 0 15 8 15 18 0 14 4 12 20 -8 11 -14 20 -31 20 -38 0 -19 -27
-44 -35 -32 -3 5 -18 10 -33 10 l-26 0 22 -16 c12 -8 22 -24 22 -35 0 -24 20
-26 21 -1 0 10 3 12 6 5 2 -7 16 -13 29 -13 13 0 24 -4 24 -9 0 -13 27 -21 45
-15 24 10 17 24 -11 24 -22 0 -25 4 -21 20 4 17 2 20 -14 15 -10 -4 -19 -2
-19 3 0 14 28 23 36 11 3 -6 12 -8 19 -5 7 2 26 -9 43 -25 26 -26 32 -28 45
-15 10 11 17 12 25 4 7 -7 15 -8 19 -4 4 4 1 11 -7 16 -12 8 -12 10 -2 10 8 0
23 -10 34 -22 11 -13 17 -18 14 -11 -4 6 -1 15 5 19 8 4 9 3 5 -4 -4 -7 0 -13
11 -14 10 0 23 -2 29 -2 30 -3 55 -34 66 -83 7 -29 17 -53 23 -53 5 0 3 -4 -5
-10 -9 -6 -17 -5 -22 3 -5 8 -15 4 -32 -13 -25 -22 -37 -58 -16 -45 5 3 10 1
10 -4 0 -6 -6 -11 -12 -11 -7 0 -4 -6 7 -12 11 -6 23 -16 27 -22 5 -6 8 -2 8
11 0 12 3 29 7 39 5 13 3 15 -7 9 -9 -5 -11 -4 -6 3 4 7 17 17 28 23 18 10 20
9 14 -7 -6 -15 -5 -17 5 -7 19 19 36 16 42 -8 4 -15 2 -19 -8 -15 -10 3 -12 0
-8 -12 6 -15 5 -16 -13 -2 -18 14 -18 14 -5 -5 28 -38 61 -66 71 -60 6 4 9 3
8 -2 -3 -13 13 -53 22 -53 5 0 14 26 20 58 6 31 17 83 24 114 12 54 11 56 -6
47 -11 -6 -18 -6 -18 0 0 5 6 11 13 14 7 2 13 17 15 32 2 23 0 25 -12 15 -13
-10 -13 -7 -3 19 12 33 2 55 -14 31 -8 -11 -9 -5 -4 22 3 21 1 38 -5 40 -15 5
-19 203 -6 283 7 39 24 95 38 127 14 31 29 65 33 77 3 12 11 21 16 21 5 0 9 6
9 13 0 8 13 27 30 43 16 16 30 35 30 42 0 6 7 12 15 12 8 0 15 5 15 10 0 6 6
10 14 10 8 0 26 14 39 30 14 17 32 30 41 30 8 0 17 13 21 31 6 28 8 29 21 12
13 -17 13 -17 14 1 0 20 0 20 16 0 15 -18 15 -18 8 5 -4 15 -2 21 4 17 6 -3
15 6 20 21 8 22 11 24 11 8 1 -11 6 -27 12 -35 9 -12 10 -11 6 8 -3 12 -1 22
4 22 5 0 9 -8 10 -17 0 -15 2 -15 9 2 7 17 9 17 9 3 1 -10 5 -18 11 -18 5 0 7
13 3 32 -4 22 -3 29 5 24 7 -4 12 -15 12 -24 1 -12 5 -10 15 8 11 19 14 21 15
8 0 -10 4 -18 9 -18 5 0 8 12 6 27 -2 24 -1 25 10 10 14 -20 32 -22 37 -6 3 8
10 6 21 -5 9 -10 18 -15 18 -12 1 3 3 11 4 16 1 6 3 13 4 16 0 4 9 0 18 -7 9
-8 14 -9 11 -4 -8 13 19 38 27 25 3 -6 3 -10 -2 -10 -4 0 0 -5 10 -11 9 -5 22
-7 28 -3 6 3 16 0 21 -7 7 -11 11 -11 15 -2 3 10 10 10 25 2 16 -8 23 -8 29 2
8 12 10 12 18 1 12 -20 18 -19 35 3 14 18 15 18 16 3 0 -12 8 -18 23 -19 12 0
30 -2 40 -5 9 -2 23 -5 30 -7 25 -6 86 -39 98 -53 6 -8 15 -14 20 -14 25 0
149 -151 149 -181 0 -6 5 -7 12 -3 8 5 9 2 5 -9 -3 -10 -3 -17 2 -17 10 0 29
-40 47 -100 16 -53 19 -140 3 -140 -15 0 -39 -64 -39 -104 0 -20 11 -60 25
-90 14 -30 25 -58 25 -62 0 -23 -54 -74 -85 -80 -21 -4 -32 -10 -28 -17 4 -6
0 -8 -9 -4 -9 3 -21 0 -27 -6 -8 -8 -11 -8 -11 1 0 9 -5 10 -19 2 -11 -5 -22
-6 -25 -1 -7 11 -95 -5 -115 -22 -9 -7 -41 -14 -71 -16 -30 -2 -62 -9 -70 -17
-13 -11 -18 -10 -29 7 -17 28 -21 21 -28 -41 -4 -42 -2 -55 14 -73 18 -20 25
-35 53 -110 8 -23 13 -26 27 -18 13 7 28 4 56 -12 28 -15 40 -18 45 -10 4 7
39 14 77 16 45 2 86 12 114 25 25 12 57 22 72 22 15 0 31 5 34 10 9 14 39 12
85 -6 l40 -16 -2 -82 c-1 -90 -24 -166 -63 -212 -41 -48 -55 -162 -24 -201 12
-16 12 -17 -2 -6 -9 7 -19 10 -23 6 -3 -4 -12 0 -19 9 -15 18 -89 40 -110 32
-11 -4 -21 4 -31 25 -9 17 -34 56 -56 87 -22 32 -40 62 -40 69 0 6 -7 20 -16
31 -14 18 -15 17 -9 -18 5 -32 3 -37 -11 -31 -9 3 -20 0 -25 -8 -6 -10 -11
-11 -20 -2 -10 10 -9 54 3 117 2 10 -5 23 -17 30 -11 6 -23 16 -27 21 -6 8
-12 -13 -10 -36 1 -3 3 -27 7 -53 3 -31 2 -45 -5 -41 -6 4 -10 -6 -10 -25 0
-34 -65 -114 -103 -126 -12 -4 -25 -12 -29 -18 -5 -8 -12 -8 -25 1 -47 33 -74
43 -98 37 -25 -6 -25 -7 -9 -25 11 -12 31 -19 54 -19 40 0 63 -18 65 -51 2
-27 -13 -36 -60 -35 -28 1 -45 -5 -58 -19 -18 -20 -18 -20 -12 5 5 22 5 23 -6
6 -9 -15 -13 -16 -20 -5 -6 10 -9 11 -9 2 0 -7 -6 -13 -14 -13 -7 0 -19 -7
-26 -15 -7 -8 -30 -20 -52 -25 -26 -8 -45 -21 -57 -41 -13 -21 -21 -26 -24
-17 -4 9 -6 7 -6 -4 -1 -10 4 -18 11 -18 6 0 8 -3 5 -6 -4 -4 -13 -1 -22 6
-13 10 -15 9 -15 -9 0 -12 -4 -19 -10 -16 -5 3 -10 -1 -10 -10 0 -8 -7 -18
-15 -21 -8 -4 -15 -10 -15 -16 0 -5 4 -7 9 -4 5 4 11 3 14 -1 2 -5 2 -2 1 4
-2 7 5 13 16 13 23 0 29 -25 17 -63 -9 -28 -9 -28 -24 -7 -12 17 -18 19 -31 8
-14 -10 -15 -10 -4 2 18 21 15 29 -10 25 -16 -4 -19 -2 -10 7 15 15 15 38 1
38 -7 0 -18 8 -26 18 -13 16 -14 15 -8 -5 5 -17 0 -25 -24 -38 -27 -13 -30
-13 -25 0 4 8 10 15 15 15 5 0 9 5 9 11 0 5 -5 7 -10 4 -5 -3 -10 -1 -10 5 0
6 -4 9 -9 6 -15 -10 -60 18 -63 39 -2 11 -10 19 -17 17 -9 -2 -12 4 -8 18 3
11 1 20 -5 20 -5 0 -6 4 -3 10 3 5 1 18 -4 27 -9 16 -10 14 -11 -9 0 -16 -5
-28 -11 -28 -8 0 -8 -4 1 -15 6 -8 9 -18 6 -23 -3 -5 -1 -24 4 -42 7 -24 6
-38 -3 -49 -9 -12 -9 -13 0 -7 8 4 17 -2 25 -18 10 -23 25 -31 50 -27 16 2 7
-19 -13 -29 -11 -6 -18 -17 -16 -23 2 -6 -13 -28 -34 -49 -29 -29 -36 -44 -34
-69 1 -17 8 -35 14 -39 7 -4 13 -11 13 -16 0 -10 2 -9 33 2 20 7 20 7 1 -14
-15 -17 -22 -19 -38 -11 -15 8 -23 8 -32 -2 -8 -9 -7 -11 7 -6 9 4 17 3 17 -2
0 -5 14 -14 30 -21 17 -7 29 -15 26 -17 -2 -3 -13 0 -24 6 -16 9 -23 6 -36
-12 l-16 -22 9 26 c9 26 9 26 -32 24 -23 -1 -62 -11 -86 -23 -25 -12 -47 -22
-49 -22 -3 0 -2 23 1 52 5 41 3 56 -11 72 -9 11 -11 16 -4 12 20 -12 39 10 40
45 0 17 8 36 17 43 15 11 15 13 1 25 -9 8 -16 22 -16 32 0 11 -4 19 -8 19 -13
0 -42 -34 -42 -49 0 -6 -6 -14 -13 -17 -7 -2 -13 -14 -14 -26 -1 -11 -10 -42
-19 -68 -16 -45 -16 -49 -1 -65 21 -20 21 -25 2 -25 -8 0 -15 7 -15 15 0 8 -4
15 -10 15 -5 0 -10 -4 -10 -10 0 -5 0 -12 0 -15 0 -3 2 -4 4 -2 2 1 13 -7 25
-17 23 -21 29 -61 9 -53 -7 2 -12 12 -12 21 3 28 -23 17 -29 -13 -4 -21 -16
-33 -44 -45 -21 -9 -55 -26 -75 -38 -40 -25 -59 -19 -40 12 15 25 15 33 0 25
-7 -4 -5 0 4 8 10 8 15 17 11 20 -3 4 2 7 13 8 10 0 13 3 7 6 -7 2 -13 11 -13
19 0 7 -6 11 -14 8 -11 -4 -13 0 -9 15 3 12 1 21 -4 21 -12 0 -8 68 7 105 6
17 13 78 15 137 2 59 6 111 9 116 3 6 -2 8 -14 5 -11 -3 -20 -11 -20 -18 0 -7
-7 -19 -17 -26 -15 -13 -15 -12 -4 9 14 25 7 57 -9 47 -5 -3 -10 1 -10 10 0
10 6 15 13 12 8 -3 22 8 32 26 23 39 26 67 8 67 -8 0 -11 5 -8 10 3 6 -3 10
-13 10 -22 0 -62 -59 -62 -91 0 -11 -3 -18 -8 -15 -4 2 -8 -33 -9 -80 -1 -46
-5 -94 -9 -106 -4 -13 -7 -50 -6 -82 1 -38 -4 -68 -13 -82 -8 -12 -17 -48 -20
-80 -3 -32 -10 -63 -16 -70 -5 -6 -9 -38 -7 -70 1 -33 -3 -68 -9 -79 -6 -11
-10 -53 -10 -93 0 -47 -4 -77 -12 -81 -8 -6 -9 -15 -2 -34 9 -22 4 -44 -28
-125 -21 -53 -40 -108 -44 -122 -3 -14 -12 -34 -20 -44 -14 -19 -16 -18 -91 9
-42 15 -76 32 -76 36 0 5 -4 9 -10 9 -6 0 -10 -40 -10 -100 l0 -100 341 0 342
0 -7 52 c-3 29 -9 70 -12 90 -5 25 -3 38 5 38 6 0 11 -15 12 -32 1 -18 4 -44
8 -58 l8 -25 40 42 c23 23 44 39 47 36 3 -4 6 -29 6 -57 l0 -51 19 31 c12 19
34 37 55 44 46 15 92 -6 145 -66 21 -24 44 -44 50 -44 7 0 28 16 46 36 28 30
40 36 65 32 16 -3 30 -2 30 2 0 3 19 4 42 1 37 -5 43 -10 52 -38 7 -25 14 -33
32 -33 13 0 24 4 24 10 0 5 18 21 39 36 32 21 46 24 77 18 45 -8 67 -22 57
-37 -4 -6 0 -8 10 -4 11 4 14 2 10 -9 -4 -11 7 -14 56 -14 48 0 61 3 61 15 0
8 4 15 10 15 5 0 7 -7 4 -15 -4 -8 -2 -15 4 -15 6 0 13 6 15 13 4 9 6 8 6 -2
1 -11 4 -11 18 0 11 10 14 10 9 1 -6 -9 144 -12 733 -12 l741 0 0 459 0 459
-37 12 c-21 7 -47 20 -58 30 -33 30 -86 39 -131 24 -35 -13 -51 -12 -147 7
-60 11 -115 18 -122 15 -7 -2 -35 6 -62 19 -26 12 -67 26 -91 29 -58 9 -100
40 -96 72 1 13 -1 22 -4 20 -4 -2 -13 3 -21 11 -12 13 -11 14 10 8 13 -4 21
-4 17 0 -4 5 -3 14 3 21 7 8 7 14 -1 19 -5 3 -10 1 -10 -6 0 -10 -3 -10 -12
-1 -9 9 -15 7 -25 -6 -13 -15 -13 -14 -3 6 6 12 15 20 19 17 18 -10 21 28 4
41 -12 9 -14 13 -5 14 7 0 11 4 7 9 -3 5 -1 12 5 16 5 3 10 1 10 -4 0 -16 26
-13 60 4 29 15 30 15 30 -10 0 -14 5 -25 11 -25 6 0 8 7 5 16 -3 9 -9 26 -12
38 -4 18 -11 22 -32 19 -15 -3 -37 -9 -49 -15 -29 -14 -53 -4 -48 21 4 24 -13
39 -21 18 -2 -7 -11 -14 -18 -14 -8 0 -12 6 -9 14 3 7 9 11 13 8 7 -4 7 36 0
55 -2 3 -2 8 -1 12 0 3 -7 5 -17 3 -17 -2 -32 11 -32 29 0 5 8 2 17 -5 15 -12
16 -12 10 4 -4 10 -7 22 -7 27 0 4 -10 6 -21 3 -19 -5 -21 -3 -15 20 5 22 3
27 -11 27 -15 0 -16 2 -3 10 10 6 17 5 23 -5 10 -19 27 -19 27 0 0 8 -4 15 -8
15 -5 0 -14 10 -21 22 -6 13 -9 15 -7 6 3 -10 0 -18 -7 -18 -21 0 -24 122 -4
170 13 29 13 51 5 123 -10 87 -10 89 13 105 34 25 109 53 109 42 0 -6 6 -10
14 -10 8 0 22 -7 30 -16 16 -16 41 -10 31 7 -4 5 0 9 7 9 8 0 13 -12 13 -30 0
-29 -10 -41 -17 -19 -5 15 -84 24 -93 9 -11 -17 -5 -19 79 -30 l76 -10 37 41
c23 26 39 36 43 29 4 -7 10 0 13 17 5 30 -12 51 -25 30 -5 -7 -7 -2 -6 12 2
13 -3 26 -11 29 -8 3 -11 0 -7 -7 10 -16 -13 -14 -30 3 -9 9 -10 17 -4 21 5 3
10 11 10 17 0 6 -9 3 -20 -7 -19 -18 -20 -17 -20 5 0 35 -27 7 -28 -30 -1 -45
-9 -51 -46 -34 -30 15 -36 15 -67 -1 -19 -10 -31 -14 -27 -10 3 3 -3 16 -14
27 l-20 20 63 36 c35 20 58 37 53 39 -6 2 -9 16 -6 31 5 25 4 26 -13 12 -16
-14 -17 -13 -11 8 5 16 3 22 -8 22 -8 0 -14 -6 -12 -12 16 -49 16 -68 1 -68
-9 0 -20 11 -25 25 -5 14 -13 26 -17 26 -41 7 -53 5 -53 -10 0 -11 -4 -9 -16
8 -14 19 -14 29 -4 67 7 24 18 44 24 44 6 0 0 10 -14 21 -24 20 -24 21 -3 16
12 -3 27 1 34 9 6 8 9 14 5 14 -3 0 2 9 11 20 10 11 23 20 30 20 7 0 21 10 32
22 l21 21 19 -21 c23 -27 34 -28 26 -2 -9 28 10 25 33 -6 15 -22 24 -26 45
-20 25 6 39 36 17 36 -6 0 -8 15 -4 40 4 22 3 40 -2 40 -16 0 -35 -40 -29 -60
8 -25 -12 -35 -24 -12 -7 13 -7 22 1 30 7 7 8 15 4 19 -4 4 -12 0 -17 -10 -12
-21 -33 -23 -25 -2 3 8 1 15 -4 15 -6 0 -10 -6 -10 -14 0 -7 -10 -16 -22 -19
-26 -7 -25 -8 -30 23 -2 16 1 24 10 22 10 -2 10 2 2 18 -6 11 -16 17 -22 14
-6 -4 -8 -3 -4 4 3 6 2 13 -2 16 -12 7 -37 -69 -28 -83 9 -14 -2 -51 -14 -51
-5 0 -7 7 -4 15 4 8 1 15 -6 15 -7 0 -10 7 -6 16 5 12 2 15 -10 10 -12 -4 -15
-2 -11 9 10 24 -11 27 -27 3 -12 -16 -19 -19 -27 -11 -8 8 -8 13 0 17 23 15
11 28 -19 22 -29 -5 -30 -5 -18 17 6 12 13 37 14 56 1 19 9 38 18 43 9 5 16
18 16 28 0 21 28 40 48 33 6 -3 12 0 12 7 0 6 -4 9 -9 5 -6 -3 -14 3 -20 12
-6 10 -11 14 -11 8 0 -5 -7 1 -16 13 -9 13 -13 29 -10 37 3 9 -1 15 -10 15 -8
0 -17 -7 -20 -15 -10 -24 -26 -17 -19 8 5 19 4 20 -5 4 -6 -9 -9 -21 -6 -25 2
-4 -2 -15 -9 -25 -13 -17 -14 -17 -20 3 -4 13 -12 19 -21 16 -8 -3 -14 -1 -14
3 0 5 -3 18 -6 28 -5 17 -4 16 10 -1 9 -11 19 -17 22 -13 4 4 -5 16 -20 28
-25 20 -26 22 -9 34 13 10 20 10 25 2 4 -7 6 -2 5 10 0 12 -5 19 -11 16 -5 -4
-7 1 -3 11 4 10 7 24 7 32 0 8 5 14 11 14 6 0 8 -9 4 -21 -5 -16 -4 -20 6 -15
8 3 22 9 32 12 9 4 17 13 17 21 0 8 5 11 12 7 8 -5 9 -2 5 10 -5 12 1 24 15
38 13 11 17 17 11 13 -7 -3 -13 -2 -13 4 0 5 -2 16 -5 23 -4 9 2 14 14 15 13
1 18 -3 14 -13 -3 -8 1 -14 11 -14 9 0 16 7 16 16 0 8 5 12 11 8 6 -3 9 -14 6
-24 -7 -28 5 -38 40 -33 30 5 33 8 31 37 -1 17 1 52 5 78 8 46 8 47 -17 44
-35 -4 -44 -15 -24 -30 13 -10 15 -19 8 -42 -7 -24 -8 -25 -9 -6 -1 12 -10 31
-21 42 -21 21 -35 27 -25 10 3 -5 -1 -10 -9 -10 -19 0 -19 -4 -5 -33 9 -19 7
-18 -10 3 -17 21 -18 27 -6 36 8 6 12 19 8 32 -6 24 -19 29 -26 10 -3 -8 -6
-6 -6 5 -1 9 -8 17 -17 17 -14 0 -14 3 -4 15 11 13 7 15 -25 15 -32 0 -36 -2
-25 -15 7 -9 10 -18 6 -22 -3 -3 -6 -1 -6 6 0 8 -7 11 -15 7 -9 -3 -15 0 -15
9 0 13 -37 15 -250 15 -166 0 -250 -3 -250 -10 0 -7 -6 -7 -20 0 -12 7 -90 10
-205 9 -150 -1 -185 -4 -185 -15 0 -19 -29 -18 -36 1 -10 26 -25 16 -18 -11 6
-24 5 -25 -15 -12 -12 7 -19 19 -16 27 4 9 0 11 -12 6 -10 -4 -23 -8 -28 -8
-6 0 -10 -12 -10 -26 0 -18 -7 -27 -25 -32 -14 -4 -19 -7 -12 -8 6 -1 12 -8
12 -17 0 -8 -4 -12 -10 -9 -5 3 -10 0 -10 -8 0 -8 -6 -19 -13 -25 -10 -8 -16
-6 -25 9 -11 17 -9 23 14 44 15 14 35 25 45 25 22 0 24 18 5 43 -11 14 -30 17
-129 17 -98 0 -116 -2 -121 -17 -4 -9 -1 -20 6 -24 9 -6 9 -13 0 -34 -10 -21
-10 -31 -1 -41 7 -8 8 -18 4 -22 -4 -4 -10 -1 -12 5 -3 8 -14 11 -29 7 -21 -5
-24 -3 -24 20 0 22 -3 26 -23 21 -15 -4 -30 1 -45 15 -15 14 -23 17 -24 8 0
-7 -2 -17 -2 -23 -1 -5 -5 -16 -10 -23 -4 -7 -8 -29 -8 -49 0 -20 -3 -31 -7
-25 -4 6 -12 7 -20 3 -8 -5 -10 -14 -6 -21 5 -8 3 -11 -6 -8 -21 7 -18 44 4
40 13 -2 17 4 17 24 0 27 0 27 -21 8 l-22 -19 8 40 c4 22 9 49 10 60 2 11 6
28 10 38 10 24 -3 21 -27 -5 -13 -16 -18 -18 -15 -6 8 23 -32 28 -218 27 -143
-1 -162 -3 -177 -20z m1092 7 c0 -2 -7 -6 -15 -10 -8 -3 -15 -1 -15 4 0 6 7
10 15 10 8 0 15 -2 15 -4z m410 -12 c0 -2 -7 -4 -15 -4 -8 0 -15 4 -15 10 0 5
7 7 15 4 8 -4 15 -8 15 -10z m-1345 -23 c-6 -5 -25 10 -25 20 0 5 6 4 14 -3 8
-7 12 -15 11 -17z m531 -9 c-15 -15 -15 -15 -4 10 7 15 15 23 17 17 2 -6 -4
-18 -13 -27z m1062 -9 c0 -39 -1 -44 -9 -25 -5 13 -7 33 -5 45 6 28 5 27 10
27 2 0 4 -21 4 -47z m-168 9 c0 -5 14 -7 31 -6 24 2 29 -1 25 -13 -5 -11 -2
-13 10 -9 14 5 15 4 4 -9 -11 -14 -14 -13 -27 2 -8 10 -11 12 -8 5 5 -10 0
-10 -23 2 -36 19 -49 36 -28 36 9 0 16 -4 16 -8z m408 -18 c15 -15 14 -16 -5
-10 -19 6 -23 2 -29 -28 -7 -40 -19 -46 -29 -16 -6 20 20 70 37 70 5 0 17 -7
26 -16z m-307 -41 c-8 -15 -10 -15 -11 -2 0 17 10 32 18 25 2 -3 -1 -13 -7
-23z m-974 -29 c-3 -3 -12 -4 -19 -1 -8 3 -5 6 6 6 11 1 17 -2 13 -5z m1113
-24 c0 -24 -27 -26 -55 -3 -20 15 -20 15 2 10 13 -3 26 -1 29 4 10 16 24 10
24 -11z m-1185 -17 c0 -16 -3 -27 -7 -25 -10 3 -11 11 -4 35 6 25 12 21 11
-10z m1325 -23 c0 -5 -4 -10 -10 -10 -5 0 -10 5 -10 10 0 6 5 10 10 10 6 0 10
-4 10 -10z m-1920 -10 c0 -5 -4 -10 -10 -10 -5 0 -10 5 -10 10 0 6 5 10 10 10
6 0 10 -4 10 -10z m541 0 c6 0 8 -4 5 -9 -8 -12 -46 -2 -46 11 0 6 7 7 16 4 9
-3 20 -6 25 -6z m1322 -2 c16 -17 21 -48 7 -48 -5 0 -11 5 -11 10 -1 6 -3 15
-4 20 -1 6 -3 13 -4 18 -1 4 -6 0 -11 -8 -5 -8 -10 -10 -10 -4 0 11 10 24 17
24 3 0 10 -6 16 -12z m-1903 -12 c0 -3 -4 -8 -10 -11 -5 -3 -10 -1 -10 4 0 6
5 11 10 11 6 0 10 -2 10 -4z m1965 -6 c3 -5 1 -10 -4 -10 -6 0 -11 5 -11 10 0
6 2 10 4 10 3 0 8 -4 11 -10z m-1618 -14 c-7 -17 18 -40 33 -31 19 12 10 -7
-18 -39 -23 -26 -31 -30 -40 -20 -17 18 -15 23 7 17 20 -5 42 18 23 25 -7 2
-12 10 -12 18 0 8 -5 14 -11 14 -8 0 -8 5 1 15 16 19 24 19 17 1z m273 4 c0
-5 -8 -10 -17 -10 -15 0 -16 2 -3 10 19 12 20 12 20 0z m26 -17 c-10 -10 -19
5 -10 18 6 11 8 11 12 0 2 -7 1 -15 -2 -18z m-599 -38 c1 -15 0 -15 -3 -3 -3
9 -13 19 -22 22 -12 3 -12 4 3 3 12 -1 21 -10 22 -22z m100 -80 c0 -8 -4 -15
-8 -15 -4 0 -9 7 -13 15 -3 9 0 15 8 15 7 0 13 -7 13 -15z m210 2 c14 0 39
-44 30 -53 -8 -9 -38 16 -32 26 3 4 -5 10 -18 14 -33 9 -37 8 -37 -10 0 -9 -6
-14 -12 -11 -16 5 -17 32 -1 32 6 0 15 4 19 8 4 4 15 5 23 1 9 -3 21 -7 28 -7z
m-172 -19 c4 -13 9 -33 11 -46 2 -19 1 -20 -12 -8 -8 8 -14 19 -14 24 0 6 -5
12 -11 14 -11 4 -2 38 11 38 4 0 11 -10 15 -22z m-77 -3 c12 -3 22 -10 22 -15
0 -5 7 -16 16 -25 15 -14 14 -15 -11 -11 -15 3 -34 13 -42 23 -10 13 -16 14
-19 6 -4 -10 -8 -10 -18 0 -17 16 -8 39 13 33 9 -2 26 -7 39 -11z m132 -15 c0
-5 -2 -10 -4 -10 -3 0 -8 5 -11 10 -3 6 -1 10 4 10 6 0 11 -4 11 -10z m-225
-10 c3 -5 1 -10 -4 -10 -6 0 -11 5 -11 10 0 6 2 10 4 10 3 0 8 -4 11 -10z
m320 1 c3 -5 1 -12 -5 -16 -5 -3 -10 1 -10 9 0 18 6 21 15 7z m-25 -22 c0 -6
-4 -7 -10 -4 -5 3 -10 11 -10 16 0 6 5 7 10 4 6 -3 10 -11 10 -16z m-401 -61
c-2 -13 0 -29 4 -35 11 -18 -8 -16 -22 1 -9 11 -9 15 1 18 10 4 10 8 -1 21
-12 15 -11 17 3 17 12 0 17 -7 15 -22z m127 -13 c19 -8 34 -20 33 -27 -2 -22
13 -58 22 -52 5 3 6 -2 3 -10 -3 -8 -12 -12 -20 -9 -8 3 -14 0 -14 -6 0 -6 -5
-11 -11 -11 -6 0 -9 7 -5 15 3 8 1 15 -4 15 -6 0 -10 -7 -10 -15 0 -8 -4 -15
-9 -15 -16 0 -4 79 14 92 5 4 6 11 1 15 -4 4 -13 0 -21 -10 -12 -16 -13 -16
-17 8 -6 29 -7 29 38 10z m1992 -20 c-12 -14 -23 -23 -26 -21 -6 7 32 54 40
50 4 -3 -2 -16 -14 -29z m-1588 -34 c0 -6 -4 -13 -10 -16 -5 -3 -10 1 -10 9 0
9 5 16 10 16 6 0 10 -4 10 -9z m-151 -38 c0 -25 -1 -26 -9 -8 -12 27 -12 35 0
35 6 0 10 -12 9 -27z m-428 -1 c12 -5 14 -13 8 -29 -8 -21 -29 -32 -29 -15 0
4 -3 17 -6 30 -7 23 -1 26 27 14z m548 1 c22 20 -4 -24 -29 -51 -17 -18 -19
-26 -10 -37 6 -8 9 -19 5 -25 -3 -5 1 -10 9 -10 22 0 29 -19 14 -37 -11 -15
-11 -16 5 -10 26 10 20 -8 -8 -23 -13 -7 -23 -16 -20 -19 2 -4 0 -13 -4 -20
-10 -16 -21 58 -17 109 2 19 -1 43 -6 54 -6 10 -6 16 -1 13 5 -3 18 4 28 15
12 15 14 23 7 26 -7 2 -12 8 -12 14 0 7 4 7 13 -1 10 -8 17 -7 26 2z m-579
-33 c0 -5 -4 -10 -10 -10 -5 0 -10 5 -10 10 0 6 5 10 10 10 6 0 10 -4 10 -10z
m462 -9 c4 -3 8 -18 10 -32 2 -14 11 -37 20 -51 14 -21 16 -38 10 -89 l-8 -64
-13 38 c-11 34 -31 51 -31 27 0 -5 5 -10 10 -10 6 0 10 -8 10 -17 0 -14 -2
-15 -9 -5 -6 10 -10 10 -21 -3 -7 -8 -16 -15 -20 -15 -15 0 -20 33 -8 48 11
13 10 14 -10 8 -15 -5 -22 -3 -22 6 0 7 -5 20 -10 28 -9 13 -15 10 -36 -15
-17 -19 -28 -26 -31 -17 -2 6 -11 12 -18 12 -14 0 -15 17 -2 38 6 8 1 12 -13
12 -12 0 -18 -4 -15 -10 3 -5 1 -10 -4 -10 -6 0 -11 8 -11 18 0 10 -5 23 -12
30 -6 6 -8 15 -4 19 4 4 11 1 16 -7 8 -12 10 -11 10 5 0 15 2 17 9 6 6 -9 14
-10 27 -3 11 6 41 13 67 15 36 4 47 2 47 -9 0 -8 5 -14 11 -14 6 0 8 7 5 16
-3 8 -1 24 4 34 7 13 6 20 -3 24 -6 3 -1 3 13 0 14 -4 28 -9 32 -13z m-222
-21 c-12 -22 -45 -27 -56 -9 -4 7 0 9 14 5 13 -4 22 -1 26 9 3 8 10 15 16 15
8 0 8 -6 0 -20z m380 -130 c0 -5 -4 -10 -10 -10 -5 0 -10 5 -10 10 0 6 5 10
10 10 6 0 10 -4 10 -10z m10 -30 c0 -5 -4 -10 -10 -10 -5 0 -10 5 -10 10 0 6
5 10 10 10 6 0 10 -4 10 -10z m-30 -10 c0 -5 -4 -10 -10 -10 -5 0 -10 5 -10
10 0 6 5 10 10 10 6 0 10 -4 10 -10z m-217 -14 c3 -8 0 -16 -7 -19 -6 -3 -13
4 -13 14 -2 22 12 25 20 5z m82 -46 c3 -5 1 -10 -4 -10 -6 0 -11 5 -11 10 0 6
2 10 4 10 3 0 8 -4 11 -10z m190 -20 c3 -5 -1 -10 -9 -10 -9 0 -16 5 -16 10 0
6 4 10 9 10 6 0 13 -4 16 -10z m1620 -140 c4 -11 11 -18 16 -15 5 4 9 1 9 -4
0 -14 -6 -14 -31 -1 -10 6 -19 17 -19 25 0 22 18 18 25 -5z m1 -107 c1 -15 -3
-20 -13 -16 -12 5 -12 7 -1 14 10 7 10 9 1 9 -7 0 -13 5 -13 11 0 20 25 2 26
-18z m249 -23 c8 -13 -5 -13 -25 0 -13 8 -13 10 2 10 9 0 20 -4 23 -10z m-570
-520 c3 -5 1 -10 -4 -10 -6 0 -11 5 -11 10 0 6 2 10 4 10 3 0 8 -4 11 -10z
m-324 -101 c36 -39 36 -45 2 -52 -16 -4 -46 -10 -68 -15 -39 -9 -39 -10 -8
-11 17 0 54 4 81 11 40 9 57 8 82 -2 26 -11 29 -15 16 -22 -9 -5 -16 -14 -16
-20 0 -9 3 -9 12 0 18 18 61 15 79 -5 21 -26 22 -32 4 -49 -8 -9 -15 -22 -15
-29 0 -20 -21 -30 -30 -14 -6 9 -11 5 -15 -14 -4 -15 -11 -24 -16 -21 -5 3 -6
-3 -2 -13 6 -15 4 -16 -9 -5 -11 9 -18 10 -23 2 -4 -7 -12 -7 -25 0 -23 12
-33 13 -26 1 3 -5 -2 -15 -12 -22 -15 -12 -16 -12 -5 1 7 9 8 21 4 29 -7 11
-11 10 -19 -5 -5 -11 -8 -25 -6 -32 1 -7 0 -8 -3 -2 -6 13 -53 13 -53 -1 0 -5
-4 -8 -9 -4 -6 3 -14 -3 -20 -12 -9 -16 -12 -16 -21 -3 -8 12 -9 9 -8 -12 2
-27 4 -27 53 -22 27 3 56 7 63 10 7 2 29 -8 48 -22 l35 -27 22 20 c14 13 29
18 40 14 17 -6 16 -8 -5 -18 -13 -6 -32 -15 -43 -19 -18 -6 -18 -8 -2 -11 9
-3 15 -9 12 -14 -4 -5 6 -24 20 -43 24 -31 24 -34 6 -29 -16 4 -19 1 -14 -16
4 -17 2 -20 -11 -15 -9 3 -16 1 -16 -4 0 -6 -9 -14 -20 -17 -11 -4 -17 -11
-14 -17 5 -7 2 -8 -5 -4 -7 5 -10 15 -7 23 3 8 1 11 -5 8 -15 -10 -59 -13 -59
-5 0 4 -7 7 -15 7 -9 0 -15 -10 -15 -24 0 -23 -1 -23 -25 -7 -14 9 -25 23 -25
30 0 8 -4 14 -10 14 -5 0 -10 8 -11 18 0 9 -3 12 -5 5 -3 -7 0 -22 7 -35 11
-21 11 -22 -4 -9 -10 7 -17 22 -17 33 0 11 -7 27 -16 35 -13 14 -17 14 -25 2
-8 -12 -10 -12 -18 0 -6 9 -11 10 -15 2 -11 -17 -22 -13 -22 8 0 15 4 17 22
11 12 -5 35 -5 51 0 28 8 17 14 -22 11 -17 -2 -18 0 -5 9 12 9 11 10 -7 5 -13
-4 -23 -2 -23 4 0 13 -55 42 -64 34 -3 -4 -6 -1 -6 6 0 7 -6 11 -14 8 -10 -4
-14 0 -11 13 2 10 -5 29 -16 41 -10 12 -19 26 -19 31 0 4 -6 7 -12 6 -32 -7
-4 108 31 130 14 9 28 20 31 23 7 10 81 29 113 29 15 0 27 4 27 9 0 5 14 14
30 20 17 5 33 18 37 28 7 19 52 62 66 63 5 0 22 -14 38 -31z m373 -15 c3 -8 2
-12 -4 -9 -6 3 -10 10 -10 16 0 14 7 11 14 -7z m5 -32 c11 11 11 9 1 -12 -8
-15 -15 -20 -18 -12 -2 6 -7 10 -10 8 -4 -2 -8 8 -9 22 -1 26 -1 26 11 4 10
-18 14 -20 25 -10z m-1089 -113 c-6 -10 -5 -20 2 -27 9 -9 9 -12 0 -12 -7 0
-12 3 -13 8 0 4 -3 16 -5 27 -3 11 -7 31 -9 45 l-4 25 19 -25 c12 -16 16 -30
10 -41z m948 -31 c-10 -6 -9 -8 3 -8 24 0 40 -23 29 -40 -8 -12 -10 -12 -10
-1 0 10 -6 9 -27 -5 -24 -15 -26 -15 -14 -1 12 15 11 17 -9 17 -17 0 -21 4
-15 18 7 18 13 40 14 56 1 5 10 1 21 -9 16 -14 17 -20 8 -27z m42 -9 c0 -6 -4
-7 -10 -4 -5 3 -10 11 -10 16 0 6 5 7 10 4 6 -3 10 -11 10 -16z m-870 -14 c0
-8 -2 -15 -4 -15 -2 0 -6 7 -10 15 -3 8 -1 15 4 15 6 0 10 -7 10 -15z m193
-54 c3 -13 0 -18 -7 -15 -7 3 -13 11 -13 19 0 22 14 18 20 -4z m544 -9 c-22
-4 -22 -18 1 -31 9 -6 12 -11 5 -11 -21 0 -44 42 -31 57 9 11 14 11 26 1 13
-12 13 -13 -1 -16z m-822 -3 c-2 -12 -10 -28 -17 -37 -11 -13 -10 -14 15 -8
19 4 26 3 22 -4 -8 -13 -38 -13 -52 1 -15 15 -26 -5 -18 -32 5 -15 10 -17 20
-9 9 8 15 8 20 0 4 -6 -6 -13 -24 -16 -26 -5 -29 -9 -20 -21 9 -10 9 -17 1
-25 -9 -9 -12 -8 -12 6 0 9 -4 15 -9 11 -6 -3 -9 4 -8 15 1 11 5 20 9 20 4 0
5 6 3 13 -6 15 29 70 41 65 5 -2 10 7 12 20 2 12 7 22 12 22 5 0 7 -9 5 -21z
m216 -25 c-11 -18 -11 -18 -9 1 1 11 -1 27 -6 35 -7 11 -5 11 9 -1 14 -14 15
-21 6 -35z m565 21 c10 -26 -1 -35 -13 -10 -6 14 -7 25 -2 25 5 0 12 -7 15
-15z m-31 -15 c3 -6 -1 -7 -9 -4 -18 7 -21 14 -7 14 6 0 13 -4 16 -10z m-11
-25 c12 0 21 -4 21 -10 0 -16 -49 -12 -62 5 -18 22 -16 35 4 19 9 -8 26 -14
37 -14z m-669 5 c3 -5 -1 -10 -10 -10 -9 0 -13 5 -10 10 3 6 8 10 10 10 2 0 7
-4 10 -10z m82 -12 c-3 -8 -6 -5 -6 6 -1 11 2 17 5 13 3 -3 4 -12 1 -19z
m-407 -4 c0 -8 -5 -12 -10 -9 -6 4 -8 11 -5 16 9 14 15 11 15 -7z m298 -31 c0
-37 -13 -60 -41 -73 -21 -11 -22 -11 -2 5 17 13 18 17 5 25 -8 5 -18 6 -24 3
-5 -3 -6 -1 -2 5 9 15 36 16 36 1 0 -5 5 -7 11 -3 6 3 8 16 5 29 -5 18 0 35 9
35 2 0 3 -12 3 -27z m362 -33 c0 -5 -2 -10 -4 -10 -3 0 -8 5 -11 10 -3 6 -1
10 4 10 6 0 11 -4 11 -10z m-718 -22 c-7 -7 -12 -8 -12 -2 0 14 12 26 19 19 2
-3 -1 -11 -7 -17z m672 -14 c3 -8 2 -12 -4 -9 -6 3 -10 10 -10 16 0 14 7 11
14 -7z m462 4 c-10 -5 -23 -5 -33 1 -15 8 -11 10 15 9 26 -1 30 -3 18 -10z
m-406 -2 c0 -2 -7 -6 -15 -10 -8 -3 -15 -1 -15 4 0 6 7 10 15 10 8 0 15 -2 15
-4z m-337 -21 c-3 -9 -8 -14 -10 -11 -3 3 -2 9 2 15 9 16 15 13 8 -4z m-49
-11 c4 -9 4 -19 1 -22 -3 -3 -5 0 -5 6 0 7 -7 12 -16 12 -8 0 -12 5 -9 10 9
15 22 12 29 -6z m227 -27 c-10 -9 -11 -8 -5 6 3 10 9 15 12 12 3 -3 0 -11 -7
-18z m-181 9 c0 -2 -8 -10 -17 -17 -16 -13 -17 -12 -4 4 13 16 21 21 21 13z
m-190 -26 c0 -5 -8 -10 -17 -10 -15 0 -16 2 -3 10 19 12 20 12 20 0z m63 -72
c-10 -11 -30 -18 -52 -17 -28 0 -32 2 -16 8 11 5 23 7 28 4 4 -2 12 -1 18 3 8
4 7 9 -2 16 -10 6 -6 7 11 3 21 -5 23 -4 10 7 -8 7 -16 20 -18 28 -1 8 6 4 17
-10 18 -23 18 -26 4 -42z m627 21 c0 -5 5 -7 12 -3 7 4 8 3 4 -4 -4 -6 -13 -9
-21 -5 -17 6 -20 23 -5 23 6 0 10 -5 10 -11z m-440 -28 c0 -5 -7 -12 -16 -15
-14 -5 -15 -4 -4 9 14 17 20 19 20 6z m350 -1 c-8 -5 -19 -10 -25 -10 -5 0 -3
5 5 10 8 5 20 10 25 10 6 0 3 -5 -5 -10z m37 -52 c-3 -8 -6 -5 -6 6 -1 11 2
17 5 13 3 -3 4 -12 1 -19z m-587 8 c0 -2 -7 -6 -15 -10 -8 -3 -15 -1 -15 4 0
6 7 10 15 10 8 0 15 -2 15 -4z m73 -49 c3 -7 -3 -13 -14 -14 -15 -1 -16 1 -6
12 15 18 14 18 20 2z m-57 -9 c12 -18 12 -48 1 -41 -5 3 -7 -3 -3 -13 3 -11 1
-32 -4 -49 l-10 -30 5 34 c3 19 0 40 -6 47 -8 10 -9 14 0 14 15 0 14 37 -1 43
-10 4 -10 6 -1 6 6 1 15 -5 19 -11z m38 -34 c3 -8 2 -12 -4 -9 -6 3 -10 10
-10 16 0 14 7 11 14 -7z m516 -84 c0 -5 -5 -10 -11 -10 -5 0 -7 5 -4 10 3 6 8
10 11 10 2 0 4 -4 4 -10z m-1170 -75 c0 -12 -19 -12 -23 0 -4 9 -1 12 9 8 7
-3 14 -7 14 -8z m666 -13 c-17 -16 -18 -16 -5 5 7 12 15 20 18 17 3 -2 -3 -12
-13 -22z m291 -157 c-7 -13 -14 -20 -15 -14 -2 5 2 16 8 24 18 21 20 18 7 -10z"/>
<path d="M265 2650 c-3 -5 -1 -10 4 -10 6 0 11 5 11 10 0 6 -2 10 -4 10 -3 0
-8 -4 -11 -10z"/>
<path d="M597 2443 c-12 -12 -7 -22 8 -17 8 4 15 10 15 15 0 11 -14 12 -23 2z"/>
<path d="M480 2426 c0 -9 -5 -16 -12 -16 -8 0 -7 -6 4 -16 17 -17 38 -12 38
10 0 8 -7 19 -15 26 -12 10 -15 10 -15 -4z"/>
<path d="M475 2350 c-3 -5 -1 -10 4 -10 6 0 11 5 11 10 0 6 -2 10 -4 10 -3 0
-8 -4 -11 -10z"/>
<path d="M1520 996 c0 -2 9 -6 20 -9 11 -3 18 -1 14 4 -5 9 -34 13 -34 5z"/>
<path d="M707 3194 c-6 -6 45 -54 57 -54 3 0 6 9 6 21 0 11 -5 17 -10 14 -6
-3 -13 1 -16 9 -6 16 -26 21 -37 10z"/>
<path d="M2300 3190 c0 -5 8 -10 18 -11 9 0 27 -2 39 -3 14 -2 19 2 16 11 -6
15 -73 18 -73 3z"/>
<path d="M2386 3189 c3 -5 14 -9 25 -9 10 0 19 -7 19 -15 0 -8 5 -15 10 -15 6
0 10 -8 11 -17 0 -15 26 38 28 59 1 4 -21 7 -49 7 -27 -1 -47 -6 -44 -10z"/>
<path d="M2490 3184 c0 -14 3 -14 15 -4 13 11 14 10 9 -6 -6 -16 -5 -17 7 -6
7 6 23 12 36 12 13 0 23 5 23 10 0 6 -20 10 -45 10 -35 0 -45 -4 -45 -16z"/>
<path d="M2702 3191 c-6 -3 -15 -19 -21 -34 -9 -24 -8 -27 9 -27 11 0 20 7 20
15 0 8 5 15 11 15 6 0 9 7 5 15 -3 8 -1 15 4 15 6 0 10 -7 10 -15 0 -8 3 -15
8 -15 10 1 42 26 42 33 0 8 -75 6 -88 -2z"/>
<path d="M2830 3191 c-16 -5 -24 -13 -22 -24 2 -9 -2 -17 -8 -17 -14 0 -9 -50
5 -52 5 0 17 12 25 28 30 54 55 38 26 -17 -14 -28 -11 -79 6 -79 6 0 22 9 38
20 l28 20 5 -38 c5 -39 -12 -70 -32 -58 -14 9 -14 36 0 36 5 0 7 5 4 10 -4 6
-12 4 -21 -5 -9 -8 -20 -15 -25 -15 -5 0 -9 -9 -9 -19 0 -27 -15 -34 -31 -15
-11 14 -14 14 -23 2 -6 -8 -21 -17 -33 -20 -20 -5 -21 -4 -12 13 5 11 7 24 4
29 -8 14 8 13 22 -1 8 -8 11 -4 10 15 -2 20 -6 24 -19 20 -22 -7 -23 9 -3 26
20 17 19 31 -1 23 -14 -5 -15 -3 -5 15 6 11 11 23 11 26 0 6 -32 -18 -53 -40
-6 -6 -19 -9 -28 -7 -9 3 -28 -2 -41 -11 -14 -9 -28 -13 -33 -9 -4 5 -3 -2 4
-14 22 -44 5 -46 -35 -4 -29 31 -44 32 -44 1 0 -10 -6 -20 -13 -23 -7 -3 -19
-23 -25 -46 -11 -35 -10 -44 4 -66 9 -14 12 -25 6 -25 -5 0 -12 7 -16 15 -8
21 -25 19 -24 -2 1 -10 -2 -38 -7 -63 -7 -42 -7 -44 10 -30 17 14 18 13 12
-11 -5 -19 -3 -29 8 -33 8 -3 15 -13 15 -23 0 -13 3 -14 12 -5 9 9 9 15 0 24
-17 17 -15 48 3 48 8 0 15 5 15 10 0 6 -4 10 -10 10 -5 0 -10 5 -10 11 0 5 5
7 11 3 6 -3 16 0 21 7 8 11 9 10 4 -3 -3 -12 -1 -15 10 -11 17 6 18 -8 2 -26
-11 -10 -10 -11 5 -6 9 4 17 11 17 16 0 5 5 9 11 9 7 0 17 7 24 17 8 11 14 12
19 5 3 -6 -3 -16 -14 -22 -23 -13 -27 -30 -5 -30 8 0 15 7 15 15 0 14 12 19
33 16 4 0 7 6 7 14 0 9 6 12 15 9 8 -4 15 -12 15 -19 0 -7 7 -15 15 -19 21 -8
19 -26 -2 -27 -11 0 -13 -3 -5 -6 8 -3 4 -11 -13 -25 -26 -20 -33 -44 -15 -50
6 -2 2 -13 -10 -26 -11 -12 -18 -22 -15 -22 3 0 -2 -11 -11 -25 -9 -13 -14
-29 -12 -34 5 -15 47 24 51 47 2 11 9 27 15 35 7 8 12 19 10 23 -5 19 14 53
26 48 7 -3 20 2 29 10 8 8 17 12 21 9 10 -10 7 -63 -4 -63 -5 0 -21 -12 -35
-26 -21 -21 -24 -29 -13 -35 12 -8 4 -13 -14 -10 -4 0 -12 -8 -17 -18 -15 -26
8 -73 32 -65 13 4 17 0 17 -21 0 -25 -26 -63 -39 -57 -3 1 -6 -2 -6 -8 0 -5
-6 -15 -12 -21 -7 -7 -13 -26 -13 -41 0 -15 -4 -28 -10 -28 -5 0 -16 -12 -24
-27 -8 -16 -15 -23 -16 -17 0 13 -50 14 -50 1 0 -13 -25 -2 -26 11 -1 7 -2 17
-3 23 -2 22 -28 -18 -33 -51 -6 -39 12 -66 31 -47 7 7 11 7 11 1 0 -6 -11 -20
-24 -31 -13 -11 -26 -27 -28 -34 -7 -20 -15 -9 -21 29 -3 18 -1 30 4 26 5 -3
9 2 9 10 0 9 -6 13 -14 10 -9 -4 -15 4 -18 25 -2 16 -1 28 4 25 4 -3 8 4 8 15
0 13 -5 19 -14 15 -16 -6 -31 12 -18 20 12 7 3 56 -10 56 -6 0 -7 -11 -4 -25
6 -23 3 -25 -24 -25 -16 0 -30 -4 -30 -10 0 -5 7 -10 15 -10 8 0 15 -7 15 -15
0 -8 6 -15 14 -15 16 0 28 -50 16 -65 -5 -6 -2 -19 6 -29 8 -11 14 -30 14 -43
0 -34 47 -44 71 -15 9 12 22 22 28 22 7 0 10 18 7 51 -2 33 0 47 7 40 5 -5 16
-7 23 -4 9 3 14 -2 14 -16 0 -12 -6 -20 -12 -18 -8 1 -12 -6 -10 -18 5 -28 9
-30 28 -15 21 18 34 -2 32 -48 -1 -19 5 -38 13 -44 11 -7 11 -11 2 -15 -17 -6
-16 -23 1 -23 7 0 16 14 20 31 8 43 8 51 -4 44 -14 -8 -24 21 -15 43 7 16 8
15 15 -3 6 -16 8 -13 14 18 6 32 11 38 28 35 12 -2 23 -9 26 -17 3 -9 -1 -11
-15 -7 -17 5 -20 2 -18 -24 1 -17 -4 -52 -12 -78 -20 -65 -31 -111 -38 -152
-4 -27 -3 -32 7 -22 7 7 20 12 30 12 13 0 18 8 18 29 0 16 7 35 16 42 15 12
16 10 10 -18 -9 -38 7 -51 27 -22 10 13 17 17 22 9 5 -8 10 -8 21 0 7 7 29 12
49 13 40 1 45 17 13 40 -13 9 -17 14 -8 13 8 -1 30 -16 47 -33 37 -35 30 -43
-38 -43 -33 0 -41 -4 -49 -25 -10 -27 -30 -34 -30 -10 0 19 -16 19 -32 0 -7
-9 -24 -26 -36 -39 -34 -33 -27 -71 13 -71 23 0 31 6 36 25 l7 25 7 -22 c8
-24 35 -32 35 -10 0 7 3 8 8 2 8 -11 32 -13 47 -3 19 11 78 20 72 11 -7 -11
28 -44 37 -36 3 3 3 17 0 29 -5 21 -3 24 21 24 23 0 26 -3 21 -23 -4 -17 -1
-24 9 -24 15 0 12 33 -6 69 -13 24 -11 28 6 22 9 -4 15 0 15 10 0 9 -4 16 -10
16 -5 0 -10 5 -10 11 0 6 7 9 15 5 8 -3 15 -2 15 2 0 4 9 8 20 8 13 0 18 -5
15 -16 -2 -8 0 -22 5 -30 8 -12 10 -9 10 13 0 15 4 27 8 27 4 0 7 -29 6 -65
-2 -36 1 -65 7 -65 5 0 9 11 9 24 0 14 5 28 11 31 6 4 9 1 7 -6 -1 -8 2 -14 7
-14 6 0 11 53 12 133 l2 132 -27 -6 c-42 -11 -55 -38 -22 -47 22 -6 38 -53 23
-68 -7 -7 -9 -2 -6 15 3 15 1 26 -6 26 -6 0 -11 -7 -11 -16 0 -8 -4 -13 -10
-9 -14 9 -60 -6 -60 -19 0 -7 -13 -13 -30 -13 -23 0 -29 4 -25 14 3 8 6 29 6
46 1 18 3 24 6 15 8 -33 22 -18 17 20 -3 28 -2 32 5 17 5 -11 10 -31 11 -45 2
-18 4 -20 7 -7 2 9 9 15 14 12 9 -6 13 18 9 68 -1 15 4 27 10 27 6 0 8 5 5 10
-3 6 -2 10 3 10 5 0 14 -12 20 -26 7 -14 17 -22 23 -18 8 5 6 10 -5 16 -25 14
-21 47 7 45 12 0 25 -6 29 -11 4 -6 7 52 7 129 0 102 -3 135 -10 122 -6 -10
-8 -29 -5 -43 8 -31 0 -31 -17 2 l-14 26 0 -31 c0 -21 6 -33 19 -37 10 -3 18
-10 18 -15 0 -13 -17 -11 -23 4 -4 7 -8 3 -12 -10 -4 -13 -11 -20 -17 -17 -5
3 -4 12 3 20 10 12 8 18 -7 29 -10 8 -27 13 -36 11 -11 -2 -15 1 -11 10 3 8 0
14 -7 14 -8 0 -9 7 -5 18 4 9 9 31 12 47 4 29 4 29 -11 10 -8 -11 -16 -26 -16
-32 0 -7 -4 -13 -9 -13 -19 0 -23 23 -11 61 10 28 19 39 34 40 19 1 19 2 2 6
-10 3 -29 -1 -42 -8 -18 -9 -22 -18 -18 -36 7 -26 -13 -83 -28 -83 -6 0 -8 -9
-5 -19 6 -26 -14 -33 -48 -15 -24 12 -26 12 -15 0 15 -20 5 -36 -23 -35 -12 0
-16 3 -9 6 17 7 15 23 -3 23 -7 0 -19 -8 -24 -17 -9 -15 -12 -15 -20 -4 -7 10
-10 11 -16 1 -6 -10 -11 -9 -21 4 -7 10 -21 19 -31 21 -10 2 -19 4 -20 5 -2 2
-7 3 -13 4 -11 1 -14 10 -7 29 3 9 8 9 20 -2 10 -7 17 -9 17 -3 0 6 -4 12 -10
14 -5 2 -6 9 -2 15 11 17 82 25 99 12 17 -15 18 12 1 30 -11 10 -10 12 2 9 10
-2 16 6 18 25 2 15 -1 27 -7 27 -6 0 -7 7 -4 17 4 11 3 14 -5 9 -7 -4 -12 -20
-12 -37 0 -16 -4 -29 -10 -29 -5 0 -6 -8 -3 -17 6 -16 5 -16 -10 -4 -9 7 -17
20 -17 27 0 8 -5 14 -11 14 -8 0 -8 4 0 13 6 8 12 22 14 33 4 25 26 64 35 62
15 -3 62 15 62 24 0 5 5 6 11 3 5 -4 18 0 27 8 9 9 29 18 43 22 15 4 30 18 37
33 l12 27 -4 -27 c-2 -19 1 -28 10 -28 8 0 14 -5 14 -11 0 -8 5 -8 15 1 12 10
15 10 15 -4 0 -30 33 -14 44 22 4 12 13 22 19 22 8 0 8 3 -1 8 -9 6 -10 16 -4
32 l9 24 5 -22 c4 -12 13 -22 22 -22 13 0 16 14 16 81 0 72 -3 83 -22 100 -19
15 -20 18 -6 19 9 0 19 -6 21 -12 3 -7 6 20 6 60 1 42 -3 72 -9 72 -5 0 -10
-9 -10 -19 0 -22 -15 -35 -29 -27 -13 9 17 66 35 66 20 0 18 46 -2 54 -12 4
-15 2 -11 -9 9 -23 -8 -26 -26 -4 -14 16 -14 19 -2 19 17 0 18 2 9 24 -5 14
-28 16 -153 15 -80 -1 -157 -4 -171 -8z m270 -31 c0 -5 -2 -10 -4 -10 -3 0 -8
5 -11 10 -3 6 -1 10 4 10 6 0 11 -4 11 -10z m-20 -26 c0 -8 -4 -12 -10 -9 -5
3 -10 10 -10 16 0 5 5 9 10 9 6 0 10 -7 10 -16z m-269 -17 c-10 -9 -11 -8 -5
6 3 10 9 15 12 12 3 -3 0 -11 -7 -18z m224 -6 c-6 -5 -25 10 -25 20 0 5 6 4
14 -3 8 -7 12 -15 11 -17z m-25 -17 c0 -8 -4 -12 -10 -9 -5 3 -10 10 -10 16 0
5 5 9 10 9 6 0 10 -7 10 -16z m43 -24 c-3 -11 -7 -20 -9 -20 -2 0 -4 9 -4 20
0 11 4 20 9 20 5 0 7 -9 4 -20z m-352 -50 c5 0 9 -4 9 -10 0 -12 -10 -13 -29
-1 -9 6 -11 15 -6 27 8 18 8 18 12 2 3 -10 9 -18 14 -18z m-126 -50 c3 -5 1
-10 -4 -10 -6 0 -11 5 -11 10 0 6 2 10 4 10 3 0 8 -4 11 -10z m-31 -42 c-3 -4
-12 -8 -20 -8 -12 0 -12 4 -2 20 8 13 15 16 19 8 4 -7 5 -16 3 -20z m520 24
c3 -5 -4 -18 -14 -30 -21 -23 -27 -37 -10 -27 6 3 10 2 10 -4 0 -5 -4 -13 -10
-16 -5 -3 -10 -14 -10 -25 0 -27 -62 -25 -79 2 -15 24 -2 38 35 38 15 0 27 11
38 35 17 34 30 43 40 27z m-364 -19 c0 -5 -5 -15 -10 -23 -9 -13 -11 -13 -20
0 -8 13 -10 12 -10 -3 0 -10 7 -20 15 -23 12 -5 12 -9 -2 -30 l-15 -24 -19 21
c-13 15 -19 17 -19 8 0 -11 -2 -11 -9 -1 -10 16 -2 62 10 62 5 0 8 -3 7 -7 -4
-14 13 -53 23 -53 6 0 7 14 3 34 -5 30 -3 35 18 39 12 2 24 5 26 6 1 0 2 -2 2
-6z m108 -19 c2 -1 -4 -11 -14 -23 -17 -19 -41 -20 -29 0 4 5 -1 9 -9 9 -9 0
-16 -4 -16 -10 0 -5 -4 -10 -9 -10 -5 0 -7 8 -4 19 7 26 44 42 63 28 8 -6 16
-12 18 -13z m97 16 c-3 -5 -11 -10 -16 -10 -6 0 -7 5 -4 10 3 6 11 10 16 10 6
0 7 -4 4 -10z m-328 -22 c-3 -8 -6 -5 -6 6 -1 11 2 17 5 13 3 -3 4 -12 1 -19z
m283 12 c0 -5 -4 -10 -10 -10 -5 0 -10 5 -10 10 0 6 5 10 10 10 6 0 10 -4 10
-10z m70 -76 c0 -22 -2 -24 -14 -14 -8 6 -12 18 -9 26 9 23 23 16 23 -12z
m-435 6 c3 -5 1 -10 -4 -10 -6 0 -11 5 -11 10 0 6 2 10 4 10 3 0 8 -4 11 -10z
m362 -35 c-4 -8 -11 -15 -17 -15 -6 0 -6 7 2 20 14 22 24 19 15 -5z m208 -9
c14 6 16 4 10 -7 -5 -8 0 -6 12 4 15 13 23 15 28 7 10 -17 -1 -24 -43 -25 -20
0 -43 -4 -50 -9 -10 -6 -10 -2 0 19 6 15 14 21 18 15 4 -6 15 -8 25 -4z m-299
-23 c-10 -10 -19 5 -10 18 6 11 8 11 12 0 2 -7 1 -15 -2 -18z m34 13 c0 -3 -4
-8 -10 -11 -5 -3 -10 -1 -10 4 0 6 5 11 10 11 6 0 10 -2 10 -4z m25 -15 c3 -5
1 -12 -5 -16 -5 -3 -10 1 -10 9 0 18 6 21 15 7z m161 -40 c-7 -11 -56 -21 -56
-10 0 9 19 17 43 18 10 1 16 -3 13 -8z m54 -321 c0 -5 -4 -10 -10 -10 -5 0
-10 5 -10 10 0 6 5 10 10 10 6 0 10 -4 10 -10z m-325 -19 c3 -5 1 -12 -5 -16
-5 -3 -10 1 -10 9 0 18 6 21 15 7z m45 -51 c-10 -18 -9 -24 1 -31 7 -4 10 -11
6 -15 -9 -10 -37 15 -37 35 -1 14 -2 14 -11 -1 -10 -18 -39 -25 -39 -10 0 19
27 41 55 44 38 4 39 4 25 -22z m140 -87 c0 -6 -22 7 -42 25 -10 8 -18 19 -18
24 0 4 14 -4 30 -19 17 -14 30 -28 30 -30z m110 53 c0 -2 -7 -6 -15 -10 -8 -3
-15 -1 -15 4 0 6 7 10 15 10 8 0 15 -2 15 -4z m-289 -20 c-7 -8 -8 -16 -4 -18
4 -3 3 -4 -3 -2 -6 1 -17 -3 -24 -9 -10 -9 -11 -9 -5 3 14 26 27 40 37 40 6 0
6 -6 -1 -14z m-51 -21 c0 -8 -4 -15 -10 -15 -5 0 -7 7 -4 15 4 8 8 15 10 15 2
0 4 -7 4 -15z m277 -47 c-3 -7 -5 -2 -5 12 0 14 2 19 5 13 2 -7 2 -19 0 -25z
m120 -30 c-3 -8 -6 -5 -6 6 -1 11 2 17 5 13 3 -3 4 -12 1 -19z m-73 -142 c-3
-9 -10 -16 -15 -16 -5 0 -4 9 3 20 14 22 21 20 12 -4z m-10 -142 c3 -7 -7 -14
-25 -16 -27 -4 -39 9 -23 25 10 10 43 4 48 -9z m-194 -4 c0 -5 -7 -10 -16 -10
-8 0 -12 5 -9 10 3 6 10 10 16 10 5 0 9 -4 9 -10z m61 -7 c7 -10 9 -15 5 -11
-5 4 -15 3 -23 -3 -14 -13 -16 -9 -7 15 8 20 9 20 25 -1z"/>
<path d="M3000 2865 c0 -8 4 -15 9 -15 5 0 11 7 15 15 3 9 0 15 -9 15 -8 0
-15 -7 -15 -15z"/>
<path d="M2770 2920 c0 -5 5 -10 11 -10 5 0 7 5 4 10 -3 6 -8 10 -11 10 -2 0
-4 -4 -4 -10z"/>
<path d="M3177 3194 c-8 -8 1 -24 14 -24 5 0 9 7 9 15 0 15 -12 20 -23 9z"/>
<path d="M2587 3167 c-3 -8 1 -14 9 -14 16 0 19 13 5 21 -5 3 -11 0 -14 -7z"/>
<path d="M2499 3143 c-9 -56 -8 -63 7 -49 16 17 19 56 4 56 -5 0 -11 -3 -11
-7z"/>
<path d="M820 3131 c0 -6 5 -13 10 -16 6 -3 10 1 10 9 0 9 -4 16 -10 16 -5 0
-10 -4 -10 -9z"/>
<path d="M2596 3125 c4 -8 10 -15 15 -15 4 0 6 7 3 15 -4 8 -10 15 -15 15 -4
0 -6 -7 -3 -15z"/>
<path d="M2466 3093 c-6 -14 -5 -15 5 -6 7 7 10 15 7 18 -3 3 -9 -2 -12 -12z"/>
<path d="M2556 3085 c15 -23 34 -34 34 -19 0 16 -23 44 -36 44 -12 0 -12 -4 2
-25z"/>
<path d="M156 3085 c-3 -8 -1 -15 4 -15 6 0 10 7 10 15 0 8 -2 15 -4 15 -2 0
-6 -7 -10 -15z"/>
<path d="M2436 3066 c3 -8 1 -17 -5 -21 -6 -3 -11 -18 -11 -32 0 -31 15 -21
15 10 1 12 6 21 13 20 17 -4 15 24 -2 30 -10 4 -13 1 -10 -7z"/>
<path d="M2815 3070 c-3 -5 -1 -10 4 -10 6 0 11 5 11 10 0 6 -2 10 -4 10 -3 0
-8 -4 -11 -10z"/>
<path d="M2780 3046 c0 -2 7 -6 15 -10 8 -3 15 -1 15 4 0 6 -7 10 -15 10 -8 0
-15 -2 -15 -4z"/>
<path d="M2820 3005 c-7 -8 -9 -15 -6 -15 4 0 14 7 22 15 9 8 11 15 6 15 -5 0
-15 -7 -22 -15z"/>
<path d="M2310 2976 c0 -9 5 -16 10 -16 6 0 10 4 10 9 0 6 -4 13 -10 16 -5 3
-10 -1 -10 -9z"/>
<path d="M2296 2916 c-8 -30 -7 -36 4 -36 6 0 10 8 10 18 0 14 2 15 10 2 6
-10 10 -11 10 -2 0 6 7 12 15 12 27 0 16 18 -14 22 -23 3 -31 0 -35 -16z"/>
<path d="M2411 2894 c-7 -20 -19 -34 -29 -34 -12 0 -13 -3 -4 -12 7 -7 12 -27
12 -45 0 -47 17 -41 30 10 6 23 15 50 20 60 7 12 7 17 -1 17 -6 0 -9 7 -6 15
4 8 3 17 -2 19 -4 3 -13 -11 -20 -30z"/>
<path d="M2227 2873 c-4 -3 -7 -11 -7 -17 0 -6 5 -5 12 2 6 6 9 14 7 17 -3 3
-9 2 -12 -2z"/>
<path d="M2250 2864 c0 -8 5 -12 10 -9 6 4 8 11 5 16 -9 14 -15 11 -15 -7z"/>
<path d="M2340 2847 c0 -10 -5 -14 -14 -11 -19 7 -24 -6 -15 -36 7 -24 7 -24
8 -2 1 12 7 22 15 22 21 0 30 20 17 33 -8 8 -11 7 -11 -6z"/>
<path d="M2345 2800 c-3 -5 1 -10 10 -10 9 0 13 5 10 10 -3 6 -8 10 -10 10 -2
0 -7 -4 -10 -10z"/>
<path d="M2350 2771 c0 -6 5 -13 10 -16 6 -3 10 1 10 9 0 9 -4 16 -10 16 -5 0
-10 -4 -10 -9z"/>
<path d="M2530 2760 c0 -5 5 -10 10 -10 6 0 10 5 10 10 0 6 -4 10 -10 10 -5 0
-10 -4 -10 -10z"/>
<path d="M2441 2725 c-3 -48 -4 -54 -13 -49 -5 4 -7 12 -4 20 3 8 1 14 -4 14
-6 0 -10 -7 -10 -16 0 -23 -22 -40 -61 -50 -19 -4 -37 -7 -40 -6 -3 0 -12 -10
-19 -23 -7 -14 -17 -25 -22 -25 -21 0 -5 -19 22 -25 17 -4 30 -12 30 -18 0 -7
5 -4 11 7 9 14 8 20 -1 26 -9 5 -9 9 -1 14 6 4 15 5 20 1 5 -3 17 5 26 17 11
15 19 19 22 11 3 -10 8 -9 20 3 8 8 18 12 21 9 6 -5 7 -18 11 -84 0 -13 4 -21
8 -17 4 4 6 22 5 40 -2 27 2 35 20 41 13 4 26 7 31 6 4 -1 7 13 7 29 0 29 -14
37 -52 31 -5 0 -8 12 -8 28 0 37 -17 50 -19 16z m40 -92 c-8 -15 -10 -15 -11
-2 0 17 10 32 18 25 2 -3 -1 -13 -7 -23z"/>
<path d="M2642 2718 c-7 -7 -18 -13 -25 -13 -7 0 -12 -9 -13 -20 -2 -40 -4
-46 -14 -40 -5 3 -10 -3 -10 -14 0 -26 12 -27 35 -1 10 11 21 17 25 15 4 -3
10 8 13 23 3 15 9 35 12 45 8 20 -5 23 -23 5z"/>
<path d="M2556 2675 c-10 -18 -16 -39 -13 -47 3 -9 7 -7 12 7 4 11 12 30 18
42 17 37 3 35 -17 -2z"/>
<path d="M3115 2609 c-11 -17 1 -21 15 -4 8 9 8 15 2 15 -6 0 -14 -5 -17 -11z"/>
<path d="M2555 2600 c3 -5 8 -10 11 -10 2 0 4 5 4 10 0 6 -5 10 -11 10 -5 0
-7 -4 -4 -10z"/>
<path d="M2935 2554 c3 -22 1 -33 -5 -29 -5 3 -10 1 -10 -5 0 -6 8 -10 18 -8
9 2 17 9 16 16 -1 6 -2 23 -2 37 -1 14 -6 25 -12 25 -5 0 -7 -16 -5 -36z"/>
<path d="M2820 2560 c0 -5 5 -10 11 -10 5 0 7 5 4 10 -3 6 -8 10 -11 10 -2 0
-4 -4 -4 -10z"/>
<path d="M2630 2535 c0 -8 -5 -15 -12 -15 -6 0 -8 -3 -5 -6 8 -8 37 14 37 27
0 5 -4 9 -10 9 -5 0 -10 -7 -10 -15z"/>
<path d="M3091 2533 c-1 -6 4 -15 10 -18 6 -4 8 -22 4 -46 -6 -35 -5 -39 14
-39 14 0 21 6 21 19 0 11 5 21 12 23 8 3 4 12 -10 26 -12 12 -17 22 -11 22 5
0 7 5 4 10 -5 8 -11 8 -20 0 -10 -8 -14 -7 -18 2 -4 9 -6 9 -6 1z"/>
<path d="M2607 2477 c-4 -10 -7 -26 -7 -35 1 -15 2 -15 11 1 6 10 9 25 7 35
-3 16 -4 15 -11 -1z"/>
<path d="M2650 2465 c-7 -9 -8 -15 -2 -15 5 0 12 7 16 15 3 8 4 15 2 15 -2 0
-9 -7 -16 -15z"/>
<path d="M2900 2450 c0 -11 4 -20 9 -20 5 0 7 9 4 20 -3 11 -7 20 -9 20 -2 0
-4 -9 -4 -20z"/>
<path d="M2645 2430 c-3 -5 1 -10 10 -10 9 0 13 5 10 10 -3 6 -8 10 -10 10 -2
0 -7 -4 -10 -10z"/>
<path d="M230 2420 c0 -5 7 -10 15 -10 8 0 15 5 15 10 0 6 -7 10 -15 10 -8 0
-15 -4 -15 -10z"/>
<path d="M2956 2422 c-2 -4 -1 -14 5 -22 7 -12 9 -10 9 8 0 23 -5 28 -14 14z"/>
<path d="M2640 2394 c0 -8 5 -12 10 -9 6 4 8 11 5 16 -9 14 -15 11 -15 -7z"/>
<path d="M2370 2389 c0 -5 5 -7 10 -4 6 3 10 8 10 11 0 2 -4 4 -10 4 -5 0 -10
-5 -10 -11z"/>
<path d="M90 2339 c0 -5 5 -7 10 -4 6 3 10 8 10 11 0 2 -4 4 -10 4 -5 0 -10
-5 -10 -11z"/>
<path d="M130 2336 c0 -7 -3 -27 -6 -43 -5 -24 -1 -35 17 -51 12 -12 26 -19
30 -16 4 2 10 0 14 -6 3 -5 1 -10 -4 -10 -6 0 -11 -4 -11 -10 0 -14 23 -8 36
10 13 17 7 80 -7 80 -5 0 -14 -11 -19 -25 -9 -23 -29 -35 -31 -17 0 4 -2 20
-4 35 -3 23 -1 26 10 17 10 -8 13 -8 11 2 -9 40 -36 67 -36 34z"/>
<path d="M186 2342 c-2 -4 -1 -14 5 -22 7 -12 9 -10 9 8 0 23 -5 28 -14 14z"/>
<path d="M2507 2336 c-4 -10 -7 -25 -6 -34 0 -11 4 -9 10 7 5 13 8 29 6 35 -2
5 -6 2 -10 -8z"/>
<path d="M210 2326 c0 -2 7 -7 16 -10 8 -3 12 -2 9 4 -6 10 -25 14 -25 6z"/>
<path d="M2386 2303 c-6 -14 -5 -15 5 -6 7 7 10 15 7 18 -3 3 -9 -2 -12 -12z"/>
<path d="M2326 2284 c-3 -8 -2 -13 3 -9 5 3 12 -1 14 -7 3 -7 6 -3 6 10 1 25
-14 30 -23 6z"/>
<path d="M95 2270 c-3 -5 -1 -10 4 -10 6 0 11 5 11 10 0 6 -2 10 -4 10 -3 0
-8 -4 -11 -10z"/>
<path d="M2367 2233 c-4 -3 -7 -11 -7 -17 0 -6 5 -5 12 2 6 6 9 14 7 17 -3 3
-9 2 -12 -2z"/>
<path d="M0 2220 c0 -5 11 -10 25 -10 14 0 25 5 25 10 0 6 -11 10 -25 10 -14
0 -25 -4 -25 -10z"/>
<path d="M67 2224 c-10 -11 13 -34 34 -34 10 0 21 5 24 10 5 9 -8 12 -31 9 -4
0 -10 4 -14 10 -3 6 -9 8 -13 5z"/>
<path d="M552 2218 c-17 -17 -15 -31 3 -24 10 4 15 -1 15 -14 0 -21 52 -80 71
-80 8 0 9 14 4 48 -8 57 -11 62 -35 62 -10 0 -22 5 -25 10 -8 13 -18 13 -33
-2z"/>
<path d="M305 2210 c3 -5 -2 -9 -12 -8 -33 2 -53 -2 -53 -12 0 -5 10 -9 22 -7
18 2 23 -3 23 -25 1 -15 5 -31 9 -35 4 -4 6 -1 4 7 -4 19 36 72 47 62 4 -4 6
-1 3 7 -2 8 -14 16 -27 18 -13 2 -20 -1 -16 -7z"/>
<path d="M3170 2190 c0 -5 5 -10 11 -10 5 0 7 5 4 10 -3 6 -8 10 -11 10 -2 0
-4 -4 -4 -10z"/>
<path d="M186 2165 c4 -8 10 -15 15 -15 4 0 6 7 3 15 -4 8 -10 15 -15 15 -4 0
-6 -7 -3 -15z"/>
<path d="M330 2150 c-13 -8 -12 -10 3 -10 10 0 15 -4 12 -10 -4 -6 5 -10 19
-10 l26 0 -20 20 c-23 23 -21 23 -40 10z"/>
<path d="M1461 2121 c-14 -22 -29 -37 -34 -34 -25 16 -90 12 -134 -7 -29 -13
-49 -17 -51 -11 -8 24 -180 -97 -203 -142 -9 -18 -7 -17 13 5 22 25 88 65 88
53 0 -3 -16 -20 -35 -37 -40 -35 -39 -46 2 -29 15 6 63 13 105 15 62 3 83 0
108 -15 44 -27 94 -25 114 6 9 13 16 36 16 50 0 15 9 48 21 74 11 27 19 63 17
80 l-3 32 -24 -40z"/>
<path d="M120 2140 c8 -5 20 -10 25 -10 6 0 3 5 -5 10 -8 5 -19 10 -25 10 -5
0 -3 -5 5 -10z"/>
<path d="M560 2129 c0 -6 -7 -9 -14 -6 -9 4 -13 1 -10 -6 2 -7 -11 -20 -31
-28 -19 -9 -33 -13 -30 -10 3 6 -60 7 -87 2 -13 -2 -9 -39 5 -45 9 -5 9 -7 0
-12 -8 -3 -10 -16 -6 -35 4 -22 2 -29 -11 -29 -9 0 -16 3 -16 8 0 4 -27 5 -60
4 -53 -3 -59 -2 -54 13 4 10 14 15 25 12 12 -3 19 0 19 8 0 18 -37 7 -53 -15
-12 -16 -50 -21 -63 -7 -4 4 -1 13 6 22 19 23 6 30 -66 32 -91 3 -114 -7 -114
-52 0 -24 5 -35 15 -35 19 0 19 -16 0 -24 -10 -4 -15 -19 -15 -49 0 -42 1 -44
25 -39 15 2 33 -2 43 -11 24 -22 39 -10 48 38 6 36 6 39 -9 26 -21 -17 -22 -2
-2 25 9 12 14 14 15 6 0 -9 9 -7 29 7 21 15 44 21 83 21 40 0 49 -3 38 -11
-11 -8 -12 -12 -2 -16 25 -10 11 -22 -44 -40 -54 -17 -105 -56 -110 -85 -1 -7
-9 -29 -18 -48 -11 -26 -16 -30 -17 -15 -1 11 -1 24 0 28 4 23 -20 44 -44 40
-24 -5 -36 -23 -15 -23 6 0 10 -5 10 -11 0 -6 -7 -9 -15 -5 -22 8 -22 -535 0
-578 8 -15 15 -36 14 -45 0 -10 -2 -11 -6 -3 -15 39 -23 -20 -23 -183 0 -158
2 -184 15 -179 13 6 31 41 27 56 -1 4 2 27 7 53 5 25 5 47 1 50 -4 3 -10 14
-13 25 -3 11 -1 18 3 15 5 -3 11 1 13 7 4 10 6 10 6 1 1 -7 7 -10 14 -7 8 3
11 18 9 46 -4 34 -2 40 11 35 12 -4 16 3 19 34 2 27 0 39 -10 39 -7 0 -15 -7
-18 -15 -4 -8 -10 -12 -15 -9 -5 3 -7 9 -4 14 3 5 -1 13 -10 17 -13 8 -13 11
1 31 17 24 36 30 28 8 -3 -8 3 -19 14 -25 18 -9 21 -4 41 62 11 40 21 78 21
85 0 6 4 12 9 12 10 0 8 -11 -21 -118 -10 -39 -17 -76 -14 -80 3 -5 -1 -40 -9
-78 -21 -109 -33 -260 -21 -272 14 -13 37 23 32 50 -3 15 -2 28 2 28 4 0 12
11 18 25 9 19 8 28 -4 46 -14 21 -14 22 2 16 23 -9 41 38 27 70 -6 13 -8 30
-5 38 4 8 -1 26 -10 40 -20 31 -20 35 2 35 10 0 19 7 19 15 0 8 -6 15 -14 15
-7 0 -13 7 -13 15 0 8 5 15 12 15 6 0 8 3 5 7 -4 3 -2 12 4 19 6 8 13 53 15
101 1 49 1 78 -2 66 -3 -13 -12 -23 -21 -23 -12 0 -14 7 -9 33 4 17 9 59 12
93 5 56 3 62 -22 87 -15 15 -30 24 -33 21 -3 -4 0 -9 7 -11 6 -3 12 -11 12
-19 0 -7 -6 -11 -14 -8 -10 4 -15 -1 -16 -13 -4 -89 -10 -142 -18 -163 -5 -14
-5 -40 0 -63 4 -21 6 -42 3 -48 -8 -12 -35 -12 -35 1 0 6 5 10 11 10 6 0 8 9
4 21 -10 30 -13 79 -5 84 8 5 15 145 12 246 l-2 77 26 -12 c17 -8 23 -17 20
-31 -4 -17 0 -20 27 -21 17 -1 33 -6 35 -13 2 -6 8 -11 14 -11 6 0 7 7 4 16
-4 9 2 32 13 50 12 19 16 36 10 39 -12 8 -12 45 2 45 5 0 8 4 5 9 -3 5 2 15
11 22 15 13 16 11 9 -14 -8 -32 0 -67 15 -67 5 0 9 15 9 33 0 39 26 96 46 104
8 3 14 10 14 15 0 26 34 79 49 76 9 -1 29 6 45 17 18 12 47 19 77 20 48 0 57
4 42 19 -5 4 -8 20 -8 34 0 17 -6 27 -15 28 -45 3 -51 5 -46 12 3 5 19 7 36 4
23 -3 30 0 30 12 0 18 16 22 22 5 2 -7 4 4 4 25 0 20 -4 36 -8 36 -4 0 -8 -5
-8 -11z m-45 -109 c3 -5 2 -10 -4 -10 -5 0 -13 5 -16 10 -3 6 -2 10 4 10 5 0
13 -4 16 -10z m-355 -29 c9 -2 -25 -21 -37 -21 -7 0 -13 6 -13 13 0 12 17 14
50 8z m-60 -45 c0 -3 -4 -8 -10 -11 -5 -3 -10 -1 -10 4 0 6 5 11 10 11 6 0 10
-2 10 -4z m-35 -901 c-3 -47 -15 -58 -15 -13 0 29 6 48 15 48 1 0 1 -16 0 -35z"/>
<path d="M2605 2110 c-3 -5 -1 -10 4 -10 6 0 11 5 11 10 0 6 -2 10 -4 10 -3 0
-8 -4 -11 -10z"/>
<path d="M610 2090 c0 -5 5 -10 11 -10 5 0 7 5 4 10 -3 6 -8 10 -11 10 -2 0
-4 -4 -4 -10z"/>
<path d="M591 2074 c0 -11 3 -14 6 -6 3 7 2 16 -1 19 -3 4 -6 -2 -5 -13z"/>
<path d="M564 1995 c11 -8 23 -15 28 -15 14 0 8 -30 -7 -36 -18 -7 -19 -23 -1
-46 9 -13 20 -15 39 -10 15 4 27 12 28 17 0 6 7 14 15 18 8 4 14 18 14 30 -1
22 -1 22 -14 -2 l-13 -24 -6 25 c-4 14 -20 31 -42 41 -44 21 -67 22 -41 2z
m52 -51 c-4 -9 -9 -15 -11 -12 -3 3 -3 13 1 22 4 9 9 15 11 12 3 -3 3 -13 -1
-22z"/>
<path d="M2631 1954 c0 -11 3 -14 6 -6 3 7 2 16 -1 19 -3 4 -6 -2 -5 -13z"/>
<path d="M3092 1905 c7 -16 15 -22 21 -16 13 13 1 41 -17 41 -13 0 -14 -4 -4
-25z"/>
<path d="M408 1913 c-10 -3 -18 -14 -18 -26 0 -16 3 -18 9 -8 6 9 11 10 15 2
11 -17 20 -13 33 14 12 26 5 30 -39 18z"/>
<path d="M1270 1872 c-34 -16 -49 -28 -38 -30 20 -4 69 20 87 42 16 20 18 20
-49 -12z"/>
<path d="M2621 1874 c0 -11 3 -14 6 -6 3 7 2 16 -1 19 -3 4 -6 -2 -5 -13z"/>
<path d="M640 1860 c0 -5 7 -7 15 -4 8 4 15 8 15 10 0 2 -7 4 -15 4 -8 0 -15
-4 -15 -10z"/>
<path d="M2335 1860 c-3 -5 -1 -10 4 -10 6 0 11 5 11 10 0 6 -2 10 -4 10 -3 0
-8 -4 -11 -10z"/>
<path d="M3090 1861 c0 -6 4 -13 10 -16 6 -3 7 1 4 9 -7 18 -14 21 -14 7z"/>
<path d="M513 1805 c0 -8 9 -15 19 -15 22 0 24 16 2 24 -21 8 -21 8 -21 -9z"/>
<path d="M661 1807 c-10 -13 -9 -16 6 -20 14 -4 13 -5 -4 -6 -31 -1 -38 0 -36
8 1 3 -10 6 -23 6 -14 0 -22 -5 -20 -11 2 -6 0 -16 -6 -22 -12 -12 -14 -80 -3
-90 4 -4 10 -2 12 5 2 7 10 10 17 7 8 -3 16 2 19 10 4 9 14 16 22 16 9 0 14
-4 10 -9 -3 -5 -1 -12 3 -15 13 -8 33 90 24 115 -7 18 -10 19 -21 6z"/>
<path d="M2830 1809 c0 -5 5 -7 10 -4 6 3 10 8 10 11 0 2 -4 4 -10 4 -5 0 -10
-5 -10 -11z"/>
<path d="M460 1800 c0 -5 9 -10 20 -10 11 0 20 5 20 10 0 6 -9 10 -20 10 -11
0 -20 -4 -20 -10z"/>
<path d="M2800 1800 c0 -5 5 -10 10 -10 6 0 10 5 10 10 0 6 -4 10 -10 10 -5 0
-10 -4 -10 -10z"/>
<path d="M705 1757 c-8 -19 -2 -31 13 -26 5 2 6 13 2 24 -7 19 -8 19 -15 2z"/>
<path d="M2550 1728 c0 -19 25 -58 37 -58 18 0 17 2 -12 36 -14 16 -25 26 -25
22z"/>
<path d="M721 1703 c-1 -7 -6 -12 -12 -10 -6 1 -14 -4 -16 -10 -5 -15 6 -17
26 -4 7 5 11 15 8 22 -4 10 -6 10 -6 2z"/>
<path d="M611 1654 c0 -11 3 -14 6 -6 3 7 2 16 -1 19 -3 4 -6 -2 -5 -13z"/>
<path d="M2714 1659 c-3 -6 -1 -16 5 -22 8 -8 11 -5 11 11 0 24 -5 28 -16 11z"/>
<path d="M231 1642 c-15 -28 -14 -31 7 -27 11 1 16 9 14 21 -5 27 -9 28 -21 6z"/>
<path d="M686 1653 c-9 -9 -7 -33 3 -33 12 0 22 28 12 34 -5 3 -11 3 -15 -1z"/>
<path d="M2582 1630 c-10 -17 -10 -20 2 -20 19 0 31 19 19 31 -5 5 -14 0 -21
-11z"/>
<path d="M740 1623 c0 -13 5 -23 10 -23 13 0 13 11 0 30 -8 12 -10 11 -10 -7z"/>
<path d="M2520 1611 c-14 -4 -20 -10 -14 -14 6 -3 20 0 30 8 21 16 20 16 -16
6z"/>
<path d="M741 1569 c22 -22 35 -20 26 6 -4 8 -16 15 -27 15 -20 0 -20 0 1 -21z"/>
<path d="M2925 1580 c-4 -6 -11 -8 -16 -5 -5 4 -9 -1 -9 -10 0 -9 5 -13 10
-10 6 3 10 1 10 -4 0 -6 4 -11 9 -11 5 0 9 11 9 25 0 27 -3 31 -13 15z"/>
<path d="M190 1570 c0 -5 5 -10 11 -10 5 0 7 5 4 10 -3 6 -8 10 -11 10 -2 0
-4 -4 -4 -10z"/>
<path d="M2990 1570 c0 -5 5 -10 10 -10 6 0 10 5 10 10 0 6 -4 10 -10 10 -5 0
-10 -4 -10 -10z"/>
<path d="M880 1551 c0 -6 4 -13 10 -16 6 -3 7 1 4 9 -7 18 -14 21 -14 7z"/>
<path d="M221 1513 c-10 -26 -10 -27 4 -9 8 11 15 23 15 28 0 15 -7 8 -19 -19z"/>
<path d="M404 1488 c3 -24 5 -49 5 -55 1 -15 41 -18 41 -3 0 6 7 10 15 10 27
0 16 37 -15 50 -16 7 -30 19 -30 26 0 8 -4 14 -10 14 -6 0 -8 -18 -6 -42z"/>
<path d="M891 1504 c0 -11 3 -14 6 -6 3 7 2 16 -1 19 -3 4 -6 -2 -5 -13z"/>
<path d="M2766 1509 c3 -6 -5 -7 -20 -3 -31 7 -56 -10 -56 -37 0 -16 6 -18 38
-15 34 4 35 4 18 -10 -17 -12 -17 -14 -3 -14 9 0 19 11 23 25 8 31 11 31 35 3
16 -20 18 -21 19 -5 0 10 -4 15 -10 12 -10 -6 -14 7 -11 31 1 7 -8 14 -19 17
-11 3 -17 1 -14 -4z"/>
<path d="M519 1443 c32 -25 33 -29 28 -74 -7 -54 2 -67 27 -40 13 15 14 23 5
50 -8 24 -8 35 1 46 10 13 7 16 -19 21 -17 4 -34 11 -37 15 -3 5 -13 9 -22 9
-12 0 -7 -8 17 -27z"/>
<path d="M1536 1445 c-3 -8 -1 -15 4 -15 6 0 10 7 10 15 0 8 -2 15 -4 15 -2 0
-6 -7 -10 -15z"/>
<path d="M2543 1452 c-29 -4 -29 -13 1 -34 22 -16 24 -16 22 0 -1 11 5 16 17
14 9 -2 17 1 17 6 0 12 -28 19 -57 14z"/>
<path d="M2920 1449 c0 -6 7 -9 15 -5 26 10 16 -3 -14 -19 -28 -14 -29 -17
-20 -45 6 -16 15 -27 20 -24 6 3 6 11 -1 19 -13 16 -5 35 15 35 15 0 28 27 19
41 -8 13 -34 11 -34 -2z"/>
<path d="M2620 1435 c0 -8 2 -15 4 -15 2 0 6 7 10 15 3 8 1 15 -4 15 -6 0 -10
-7 -10 -15z"/>
<path d="M197 1433 c-4 -3 -7 -11 -7 -17 0 -6 5 -5 12 2 6 6 9 14 7 17 -3 3
-9 2 -12 -2z"/>
<path d="M2712 1418 c5 -15 28 -23 28 -10 0 5 -7 13 -16 16 -10 4 -14 1 -12
-6z"/>
<path d="M3130 1421 c0 -5 5 -13 10 -16 6 -3 10 -2 10 4 0 5 -4 13 -10 16 -5
3 -10 2 -10 -4z"/>
<path d="M495 1400 c3 -5 8 -10 11 -10 2 0 4 5 4 10 0 6 -5 10 -11 10 -5 0 -7
-4 -4 -10z"/>
<path d="M2401 1394 c0 -11 3 -14 6 -6 3 7 2 16 -1 19 -3 4 -6 -2 -5 -13z"/>
<path d="M2588 1384 c3 -19 1 -25 -7 -20 -6 4 -11 0 -11 -10 0 -14 2 -14 16
-3 11 9 18 9 22 2 4 -6 16 -12 27 -14 11 -3 21 -13 24 -24 5 -28 19 -34 60
-28 58 9 80 36 40 46 -15 4 -20 11 -16 21 4 10 1 16 -9 16 -11 0 -12 -4 -5
-19 10 -19 6 -31 -12 -31 -5 0 -7 15 -4 35 3 19 2 35 -4 35 -5 0 -9 -15 -9
-32 -1 -33 -1 -33 -18 -12 -12 14 -26 19 -45 17 -23 -3 -27 0 -27 22 0 14 -6
25 -14 25 -9 0 -12 -8 -8 -26z"/>
<path d="M2831 1401 c-7 -5 -22 -6 -32 -4 -11 3 -19 0 -19 -7 0 -7 6 -10 14
-7 9 4 16 -3 19 -21 6 -29 -1 -54 -13 -47 -4 3 -15 -7 -25 -21 -21 -32 -8 -50
26 -38 13 4 29 7 36 6 6 -2 14 7 18 18 3 11 14 20 24 20 9 0 26 7 37 15 16 13
16 14 2 9 -13 -4 -18 -1 -19 12 0 11 -3 14 -6 7 -2 -7 -13 -13 -24 -13 -10 0
-19 -5 -19 -12 0 -6 -3 -8 -7 -4 -5 4 0 13 9 20 9 7 19 25 22 42 4 16 3 22 -1
14 -8 -15 -53 -26 -53 -13 0 3 8 12 18 19 19 15 15 19 -7 5z"/>
<path d="M210 1390 c0 -5 5 -10 10 -10 6 0 10 5 10 10 0 6 -4 10 -10 10 -5 0
-10 -4 -10 -10z"/>
<path d="M2525 1389 c-4 -6 -5 -12 -2 -15 2 -3 7 2 10 11 7 17 1 20 -8 4z"/>
<path d="M579 1303 c-17 -21 -24 -41 -25 -75 -1 -42 1 -46 13 -30 8 9 12 11 8
5 -3 -7 -1 -13 4 -13 6 0 11 7 11 15 0 8 5 15 10 15 6 0 10 -8 10 -17 0 -13 7
-10 30 12 17 16 30 34 30 40 0 11 -52 75 -62 75 -2 0 -15 -12 -29 -27z m28
-49 c-3 -3 -12 -4 -19 -1 -8 3 -5 6 6 6 11 1 17 -2 13 -5z"/>
<path d="M495 1300 c-3 -5 3 -10 14 -10 12 0 21 5 21 10 0 6 -6 10 -14 10 -8
0 -18 -4 -21 -10z"/>
<path d="M2640 1282 c0 -7 -5 -11 -12 -9 -7 1 -13 -8 -14 -20 -2 -27 11 -30
20 -6 6 14 9 15 16 3 13 -21 44 -21 58 1 12 18 10 19 -14 13 -20 -5 -31 -2
-41 11 -7 11 -13 13 -13 7z"/>
<path d="M905 1260 c-3 -5 -1 -10 4 -10 6 0 11 5 11 10 0 6 -2 10 -4 10 -3 0
-8 -4 -11 -10z"/>
<path d="M3147 1263 c-9 -2 -15 -9 -11 -14 4 -6 11 -6 20 2 8 6 14 8 14 3 0
-5 -20 -22 -44 -37 -46 -29 -53 -57 -14 -57 11 0 28 -5 39 -10 15 -8 23 -7 34
4 22 22 18 34 -12 39 l-28 4 28 2 c24 1 27 5 27 36 0 36 -7 40 -53 28z"/>
<path d="M2515 1240 c3 -5 8 -10 11 -10 2 0 4 5 4 10 0 6 -5 10 -11 10 -5 0
-7 -4 -4 -10z"/>
<path d="M2760 1220 c-17 -14 -20 -20 -10 -21 8 0 0 -5 -17 -10 -18 -5 -33
-16 -33 -23 0 -14 55 -30 71 -20 5 3 6 -2 3 -11 -5 -11 -2 -14 10 -9 9 3 13
11 9 17 -3 6 -1 7 5 3 6 -4 9 -13 5 -21 -5 -16 -25 -20 -37 -8 -4 4 -19 9 -34
10 -21 3 -24 1 -12 -7 11 -8 5 -9 -24 -4 l-39 7 21 -23 c18 -20 28 -22 67 -17
41 6 62 -4 33 -16 -9 -4 -9 -6 1 -6 8 -1 22 6 31 14 21 19 80 31 80 16 0 -6 5
-11 11 -11 5 0 8 4 4 10 -9 15 67 79 102 86 40 8 66 34 34 34 -12 0 -21 6 -21
15 0 8 -4 15 -9 15 -21 0 -41 -13 -41 -26 0 -11 -11 -12 -47 -8 -27 3 -61 6
-78 6 -16 0 -22 2 -12 5 29 8 19 23 -15 23 -18 0 -44 -9 -58 -20z m110 -50 c0
-5 -12 -10 -26 -10 -14 0 -23 4 -19 10 3 6 15 10 26 10 10 0 19 -4 19 -10z"/>
<path d="M2655 1201 c-3 -5 -1 -12 5 -16 5 -3 10 1 10 9 0 18 -6 21 -15 7z"/>
<path d="M915 1169 c-11 -16 -1 -19 13 -3 7 8 8 14 3 14 -5 0 -13 -5 -16 -11z"/>
<path d="M936 1133 c-6 -14 -5 -15 5 -6 7 7 10 15 7 18 -3 3 -9 -2 -12 -12z"/>
<path d="M947 1113 c-4 -3 -7 -11 -7 -17 0 -6 5 -5 12 2 6 6 9 14 7 17 -3 3
-9 2 -12 -2z"/>
<path d="M630 1085 c0 -8 -6 -12 -14 -9 -15 6 -20 -5 -31 -66 -6 -33 -5 -34
10 -16 8 11 15 26 15 34 0 11 3 12 13 3 18 -14 50 19 41 42 -8 21 -34 30 -34
12z"/>
<path d="M653 995 c-3 -9 -3 -18 -1 -21 3 -3 8 4 11 16 6 23 -1 27 -10 5z"/>
<path d="M870 970 c0 -5 5 -10 11 -10 5 0 7 5 4 10 -3 6 -8 10 -11 10 -2 0 -4
-4 -4 -10z"/>
<path d="M607 923 c-4 -3 -7 -15 -7 -25 0 -16 -5 -19 -29 -13 -17 3 -32 2 -36
-4 -3 -6 -1 -11 4 -11 6 0 11 -9 11 -21 0 -12 8 -23 20 -26 11 -3 20 -10 21
-17 1 -19 22 37 25 67 1 16 5 35 8 43 6 14 -6 19 -17 7z"/>
<path d="M0 693 c0 -60 9 -81 30 -68 6 4 5 18 -4 39 -9 21 -10 38 -5 43 5 5 3
17 -6 29 -13 17 -14 14 -15 -43z"/>
<path d="M90 727 c0 -16 24 -17 37 -1 4 5 4 6 -1 2 -5 -4 -15 -3 -23 3 -10 9
-13 8 -13 -4z"/>
<path d="M45 590 c-3 -5 -1 -10 4 -10 6 0 11 5 11 10 0 6 -2 10 -4 10 -3 0 -8
-4 -11 -10z"/>
<path d="M0 525 c0 -35 4 -54 10 -50 13 8 13 92 0 100 -6 4 -10 -15 -10 -50z"/>
<path d="M874 50 c-20 -8 -39 -38 -30 -47 2 -2 37 -3 77 -1 l74 3 -30 21 c-39
28 -65 35 -91 24z"/>
<path d="M1168 23 c-37 -10 -16 -23 37 -23 44 0 53 3 49 15 -6 15 -47 18 -86
8z"/>
<path d="M1430 10 c0 -6 24 -10 53 -9 41 1 47 3 27 9 -36 12 -80 12 -80 0z"/>
</g>
</svg>
