<?xml version="1.0" encoding="UTF-8" standalone="no"?>
<!-- Created with Inkscape (http://www.inkscape.org/) -->

<svg
   width="200mm"
   height="200mm"
   viewBox="0 0 200 200"
   version="1.1"
   id="svg110"
   inkscape:version="1.1 (c68e22c387, 2021-05-23)"
   sodipodi:docname="GRATUITO.svg"
   xmlns:inkscape="http://www.inkscape.org/namespaces/inkscape"
   xmlns:sodipodi="http://sodipodi.sourceforge.net/DTD/sodipodi-0.dtd"
   xmlns="http://www.w3.org/2000/svg"
   xmlns:svg="http://www.w3.org/2000/svg">
  <sodipodi:namedview
     id="namedview112"
     pagecolor="#ffffff"
     bordercolor="#666666"
     borderopacity="1.0"
     inkscape:pageshadow="2"
     inkscape:pageopacity="0.0"
     inkscape:pagecheckerboard="0"
     inkscape:document-units="px"
     showgrid="false"
     inkscape:zoom="0.98520767"
     inkscape:cx="262.88874"
     inkscape:cy="498.37208"
     inkscape:window-width="2880"
     inkscape:window-height="1526"
     inkscape:window-x="2869"
     inkscape:window-y="-11"
     inkscape:window-maximized="1"
     inkscape:current-layer="layer1" />
  <defs
     id="defs107" />
  <g
     inkscape:label="Camada 1"
     inkscape:groupmode="layer"
     id="layer1">
    <g
       id="g23488"
       transform="rotate(-30,99.784128,100.31379)">
      <g
         id="g1207"
         transform="translate(-1.2154701)">
        <path
           id="path136"
           style="fill:none;fill-rule:evenodd;stroke:#ff0000;stroke-width:5.29167"
           d="M 174.70588,100.07609 A 73.49041,73.49041 0 0 1 101.21547,173.5665 73.49041,73.49041 0 0 1 27.72506,100.07609 73.49041,73.49041 0 0 1 101.21547,26.585678 73.49041,73.49041 0 0 1 174.70588,100.07609 Z" />
        <path
           id="circle1077"
           style="fill:none;fill-rule:evenodd;stroke:#ff0000;stroke-width:5.29167"
           d="M 174.70588,100.07609 A 73.49041,73.49041 0 0 1 101.21547,173.5665 73.49041,73.49041 0 0 1 27.72506,100.07609 73.49041,73.49041 0 0 1 101.21547,26.585678 73.49041,73.49041 0 0 1 174.70588,100.07609 Z" />
        <path
           id="circle1181"
           style="fill:none;fill-rule:evenodd;stroke:#ff0000;stroke-width:1.32292"
           d="M 165.90755,100.07609 A 64.692085,64.692085 0 0 1 101.21547,164.76817 64.692085,64.692085 0 0 1 36.523384,100.07609 64.692085,64.692085 0 0 1 101.21547,35.384003 64.692085,64.692085 0 0 1 165.90755,100.07609 Z" />
        <path
           id="circle1183"
           style="fill:#ff0000;fill-rule:evenodd;stroke:#ff0000;stroke-width:2.22964"
           d="M 132.18063,100.07609 A 30.965158,30.965158 0 0 1 101.21547,131.04125 30.965158,30.965158 0 0 1 70.250311,100.07609 30.965158,30.965158 0 0 1 101.21547,69.110929 30.965158,30.965158 0 0 1 132.18063,100.07609 Z" />
        <path
           id="circle22087"
           style="fill:#ff0000;fill-rule:evenodd;stroke:#ff0000;stroke-width:2.22964"
           d="M 132.18063,100.07609 A 30.965158,30.965158 0 0 1 101.21547,131.04125 30.965158,30.965158 0 0 1 70.250311,100.07609 30.965158,30.965158 0 0 1 101.21547,69.110929 30.965158,30.965158 0 0 1 132.18063,100.07609 Z" />
      </g>
      <g
         id="g21455"
         transform="translate(-1.9750612,2.9541149)">
        <path
           id="rect1231"
           style="fill:#ff0000;stroke:#ff0000;stroke-width:1.32292"
           d="M 10.634271,72.920715 H 193.31585 V 121.91432 H 10.634271 Z" />
        <path
           id="rect1233"
           style="fill:#ffffff;stroke:#ff0000;stroke-width:1.23316"
           d="M 12.469283,75.695671 H 191.48083 V 119.13936 H 12.469283 Z" />
        <path
           id="rect1333"
           style="fill:#ff0000;stroke:#ff0000;stroke-width:1.0508"
           d="M 16.809277,80.841331 H 187.14083 V 113.9937 H 16.809277 Z" />
        <g
           aria-label="GRATUITO"
           transform="scale(0.99518807,1.0048352)"
           id="text4215"
           style="font-size:34.4479px;line-height:1.25;font-family:Stencil;-inkscape-font-specification:Stencil;fill:#ffffff;stroke-width:0.861198">
          <path
             d="m 29.230332,84.779927 v 1.867049 q -1.480183,0.353226 -1.480183,2.354837 v 15.659667 q 0,0.90829 0.252304,1.39608 0.218663,0.40369 0.925114,0.68963 v 1.90069 q -0.538248,0 -0.992395,-0.0841 -0.437327,-0.0841 -1.177419,-0.33641 -1.766127,-0.60553 -3.19585,-1.85023 -1.429722,-1.24469 -2.354837,-2.97718 -1.429722,-2.70806 -1.429722,-6.408522 0,-3.582716 1.27834,-6.358059 1.27834,-2.775344 3.666817,-4.356449 1.379262,-0.925114 2.960367,-1.3288 0.65599,-0.168203 1.547464,-0.168203 z m 1.379261,1.833409 v -1.816589 q 2.741703,0.252304 4.507831,1.009216 0.521428,0.235484 0.807373,0.235484 0.269124,0 0.403686,-0.117742 0.151382,-0.134562 0.588709,-0.723271 0.302765,-0.420507 0.756912,-0.420507 0.470967,0 0.65599,0.269124 0.201843,0.252304 0.201843,0.857834 v 6.543082 q 0,1.27834 -0.941934,1.27834 -0.470968,0 -0.706451,-0.252304 -0.218664,-0.252304 -0.420507,-0.992396 -0.252304,-0.941934 -0.908294,-2.186634 -0.65599,-1.261519 -1.26152,-1.984791 -0.689631,-0.841013 -1.547464,-1.227879 -0.857834,-0.403686 -2.136174,-0.470967 z m 7.602759,18.771414 q -0.67281,0.67281 -1.799768,1.37926 -1.110137,0.68963 -2.102533,1.09332 -0.908294,0.35322 -2.018431,0.57189 -1.093317,0.21866 -1.93433,0.21866 v -1.90069 q 0.487787,-0.11774 0.723271,-0.28594 0.252304,-0.16821 0.420506,-0.47097 0.285945,-0.52143 0.285945,-1.3288 v -4.911519 q 0,-0.65599 -0.252304,-0.941935 -0.117742,-0.168202 -0.235484,-0.201843 -0.117742,-0.05046 -0.773732,-0.201843 -0.807372,-0.201843 -0.807372,-0.941935 0,-0.437326 0.370045,-0.67281 0.386866,-0.235484 1.126958,-0.235484 h 0.555069 6.156216 q 0.756912,0 1.059677,0.218664 0.319585,0.201843 0.319585,0.723271 0,0.319585 -0.134563,0.538248 -0.117741,0.201843 -0.454147,0.437327 -0.336405,0.235484 -0.420506,0.437327 -0.0841,0.201843 -0.0841,0.740092 z"
             id="path23519" />
          <path
             d="m 51.012573,85.234074 v 19.763806 q 0,0.65599 0.252304,0.94194 0.134562,0.1682 0.252304,0.21866 0.117742,0.0336 0.773732,0.20184 0.807372,0.18503 0.807372,0.92512 0,0.43733 -0.437326,0.70645 -0.319585,0.20184 -1.059677,0.20184 h -0.571889 -7.501837 -0.437327 q -0.60553,0 -0.941935,-0.21866 -0.319585,-0.23548 -0.319585,-0.65599 0,-0.68963 0.672811,-0.90829 0.555068,-0.18503 0.63917,-0.21867 0.100921,-0.0505 0.201843,-0.20184 0.201843,-0.26913 0.201843,-0.85783 V 88.295362 q 0,-0.588709 -0.201843,-0.857833 -0.100922,-0.151383 -0.201843,-0.185023 -0.0841,-0.05046 -0.63917,-0.235484 -0.672811,-0.218663 -0.672811,-0.908294 0,-0.420507 0.319585,-0.63917 0.336405,-0.235484 0.941935,-0.235484 h 0.437327 z m 5.163821,11.706903 q 1.547464,0.235484 2.371657,0.521428 0.841013,0.285945 1.513823,0.773732 0.706451,0.521429 1.076497,1.2447 0.386866,0.723273 0.386866,1.530643 v 3.4818 q 0,0.53824 0.353226,0.53824 0.134562,0 0.218663,-0.0673 0.100922,-0.0841 0.269124,-0.30276 0.420507,-0.57189 0.857834,-0.57189 0.285944,0 0.571889,0.30276 0.285944,0.30277 0.285944,0.60553 0,0.52143 -0.504608,1.27834 -0.487787,0.74009 -1.227879,1.3288 -0.689631,0.55507 -1.497003,0.79056 -0.807373,0.2523 -1.90069,0.2523 -2.220275,0 -3.464974,-1.26152 -1.2447,-1.27834 -1.2447,-3.54907 v -2.82581 q 0,-0.94193 -0.01682,-1.093316 -0.0841,-0.672811 -0.470967,-1.160598 -0.487788,-0.58871 -1.396082,-0.689631 v -1.799768 q 0.908294,-0.134562 1.29516,-0.470968 0.336405,-0.302764 0.454147,-0.68963 0.134562,-0.386867 0.134562,-1.143778 v -4.45737 q 0,-1.059677 -0.420506,-1.581105 -0.403687,-0.521428 -1.480183,-0.824193 V 85.234074 H 52.7787 q 1.86705,0 3.17903,0.134562 1.951151,0.185023 3.481795,1.27834 2.203454,1.564285 2.203454,4.45737 0,2.371657 -1.480183,3.885481 -0.62235,0.63917 -1.463363,1.042856 -0.824193,0.403686 -2.523039,0.908294 z"
             id="path23521" />
          <path
             d="m 72.660249,85.234074 h 6.778566 l 4.676034,19.763806 q 0.134562,0.52143 0.302764,0.92512 0.151383,0.31958 0.672811,0.52143 0.437327,0.18502 0.605529,0.37004 0.168203,0.18502 0.168203,0.50461 0,0.87465 -1.311981,0.87465 h -8.393311 q -0.504608,0 -0.807373,-0.23548 -0.302764,-0.2523 -0.302764,-0.65599 0,-0.33641 0.134562,-0.50461 0.134562,-0.1682 0.605529,-0.42051 0.336406,-0.1682 0.470968,-0.37004 0.134562,-0.20184 0.134562,-0.50461 0,-0.28594 -0.05046,-0.50461 l -0.538248,-2.43893 h -4.692854 l 0.454147,-2.00162 h 3.767739 L 72.239743,86.88246 Z m -1.160598,4.272347 0.857834,3.481794 -2.977187,10.865895 q -0.134562,0.47096 -0.134562,0.87465 0,1.05968 0.992395,1.51382 l 0.58871,0.26913 q 0.555068,0.2523 0.555068,0.84101 0,0.84101 -1.227879,0.84101 h -4.272347 q -0.622349,0 -0.992395,-0.2523 -0.353226,-0.26912 -0.353226,-0.72327 0,-0.48779 0.740092,-0.80737 0.689631,-0.30277 1.009216,-0.53825 0.336405,-0.25231 0.63917,-0.67281 0.470967,-0.68963 0.773732,-1.83341 z"
             id="path23523" />
          <path
             d="m 99.808155,85.234074 v 19.763806 q 0,0.65599 0.252305,0.94194 0.13456,0.1682 0.2523,0.21866 0.11774,0.0336 0.77373,0.20184 0.80738,0.18503 0.80738,0.92512 0,0.43733 -0.43733,0.70645 -0.31958,0.20184 -1.0765,0.20184 h -0.555065 -7.501837 -0.555069 q -0.740091,0 -1.126958,-0.21866 -0.370045,-0.23548 -0.370045,-0.68963 0,-0.74009 0.807372,-0.92512 0.655991,-0.1682 0.773732,-0.20184 0.117742,-0.0505 0.235484,-0.21866 0.252304,-0.28595 0.252304,-0.94194 V 85.234074 Z m 5.819815,0 v 6.879488 q 0,0.487787 -0.28595,0.790552 -0.26912,0.302765 -0.70645,0.302765 -0.42051,0 -0.70645,-0.269124 -0.26912,-0.285945 -0.35323,-0.773733 l -0.1682,-1.026036 q -0.2523,-1.564284 -0.97557,-2.708062 -0.45415,-0.706451 -1.22788,-1.160598 v -2.035252 z m -19.074182,0 h 4.423729 v 2.035252 q -0.790553,0.454147 -1.227879,1.160598 -0.723272,1.143778 -0.975576,2.708062 l -0.168202,1.026036 q -0.0841,0.487788 -0.370046,0.773733 -0.269124,0.269124 -0.689631,0.269124 -0.437327,0 -0.723271,-0.302765 -0.269124,-0.302765 -0.269124,-0.790552 z"
             id="path23525" />
          <path
             d="M 109.12659,101.48245 V 88.295362 q 0,-0.588709 -0.20185,-0.857833 -0.10092,-0.151383 -0.20184,-0.185023 -0.0841,-0.05046 -0.63917,-0.235484 -0.67281,-0.218663 -0.67281,-0.891474 0,-0.437327 0.31958,-0.65599 0.33641,-0.235484 0.94194,-0.235484 h 0.43733 7.50183 0.43733 l 0.60553,0.06728 q 0.28594,0.0841 0.47097,0.302765 0.18502,0.218663 0.18502,0.521428 0,0.672811 -0.67281,0.891474 -0.55507,0.185023 -0.65599,0.235484 -0.0841,0.03364 -0.18502,0.185023 -0.20185,0.269124 -0.20185,0.857833 v 14.112199 q 0,1.42973 0.0673,2.00161 0.0841,0.55507 0.31959,1.00922 0.21866,0.42051 0.48779,0.60553 0.26912,0.18502 1.02603,0.42051 v 2.20345 h -0.37004 q -2.18664,0 -3.63318,-0.38687 -1.69885,-0.45414 -2.97719,-1.34562 -1.27834,-0.89147 -1.81658,-2.00161 -0.57189,-1.17742 -0.57189,-3.43133 z m 10.91635,7.16543 v -2.20345 q 1.68202,-0.21867 2.80898,-1.37927 1.27834,-1.3288 1.27834,-3.8182 V 90.280153 q 0,-2.304376 -1.76613,-3.21267 -0.52142,-0.269124 -0.68963,-0.454147 -0.15138,-0.201844 -0.15138,-0.571889 0,-0.437327 0.31959,-0.62235 0.31958,-0.185023 1.04285,-0.185023 h 4.12097 q 0.52142,0 0.68963,0.03364 0.18502,0.01682 0.35322,0.117741 0.43733,0.252304 0.43733,0.689631 0,0.370046 -0.26913,0.62235 -0.0841,0.0841 -0.72327,0.454147 -0.74009,0.403686 -1.16059,1.2447 -0.42051,0.824192 -0.42051,1.883869 v 10.983628 q 0,2.82581 -1.2447,4.6424 -0.90829,1.34562 -2.60714,2.15299 -0.84101,0.40369 -2.01843,0.58871 z"
             id="path23527" />
          <path
             d="m 140.21043,108.19373 h -7.50184 -0.43733 q -0.60552,0 -0.94193,-0.21866 -0.31958,-0.23548 -0.31958,-0.65599 0,-0.68963 0.67281,-0.90829 0.55506,-0.18503 0.63917,-0.21867 0.10092,-0.0505 0.20184,-0.20184 0.20184,-0.26913 0.20184,-0.85783 V 88.295362 q 0,-0.588709 -0.20184,-0.857833 -0.10092,-0.151383 -0.20184,-0.185023 -0.0841,-0.05046 -0.63917,-0.235484 -0.67281,-0.218663 -0.67281,-0.908294 0,-0.420507 0.31958,-0.63917 0.33641,-0.235484 0.94193,-0.235484 h 0.43733 7.50184 0.43733 q 0.60553,0 0.92511,0.235484 0.33641,0.218663 0.33641,0.63917 0,0.689631 -0.67281,0.908294 -0.55507,0.185023 -0.656,0.235484 -0.0841,0.03364 -0.18502,0.185023 -0.20184,0.269124 -0.20184,0.857833 v 16.837088 q 0,0.5887 0.20184,0.85783 0.10092,0.15138 0.18502,0.20184 0.10093,0.0336 0.656,0.21867 0.67281,0.21866 0.67281,0.90829 0,0.42051 -0.33641,0.65599 -0.31958,0.21866 -0.92511,0.21866 z"
             id="path23529" />
          <path
             d="m 157.23253,85.234074 v 19.763806 q 0,0.65599 0.25231,0.94194 0.13456,0.1682 0.2523,0.21866 0.11774,0.0336 0.77373,0.20184 0.80737,0.18503 0.80737,0.92512 0,0.43733 -0.43732,0.70645 -0.31959,0.20184 -1.0765,0.20184 h -0.55507 -7.50183 -0.55507 q -0.7401,0 -1.12696,-0.21866 -0.37005,-0.23548 -0.37005,-0.68963 0,-0.74009 0.80738,-0.92512 0.65599,-0.1682 0.77373,-0.20184 0.11774,-0.0505 0.23548,-0.21866 0.25231,-0.28595 0.25231,-0.94194 V 85.234074 Z m 5.81981,0 v 6.879488 q 0,0.487787 -0.28594,0.790552 -0.26913,0.302765 -0.70645,0.302765 -0.42051,0 -0.70645,-0.269124 -0.26913,-0.285945 -0.35323,-0.773733 l -0.1682,-1.026036 q -0.25231,-1.564284 -0.97558,-2.708062 -0.45414,-0.706451 -1.22788,-1.160598 v -2.035252 z m -19.07418,0 h 4.42373 v 2.035252 q -0.79055,0.454147 -1.22788,1.160598 -0.72327,1.143778 -0.97557,2.708062 l -0.1682,1.026036 q -0.0841,0.487788 -0.37005,0.773733 -0.26912,0.269124 -0.68963,0.269124 -0.43733,0 -0.72327,-0.302765 -0.26913,-0.302765 -0.26913,-0.790552 z"
             id="path23531" />
          <path
             d="m 173.9687,86.596515 q -0.85783,0.302765 -1.21106,0.824193 -0.35322,0.521428 -0.35322,1.530644 v 15.037318 q 0,1.48018 0.40368,2.08571 0.31959,0.50461 1.1606,0.72327 v 1.85023 q -3.7341,-0.30276 -6.25714,-2.80898 -3.27995,-3.26313 -3.27995,-9.099766 0,-2.926726 0.85783,-5.281563 0.87466,-2.371657 2.5735,-4.020042 1.29516,-1.26152 2.79217,-1.91751 1.497,-0.655991 3.31359,-0.740092 z m 1.37926,0 v -1.816588 q 1.81659,0.0841 3.31359,0.740092 1.51383,0.65599 2.80899,1.91751 3.43133,3.347232 3.43133,9.301605 0,5.836636 -3.27995,9.099766 -2.52304,2.52304 -6.27396,2.80898 v -1.85023 q 0.43733,-0.10092 0.67281,-0.2523 0.25231,-0.16821 0.45415,-0.47097 0.45415,-0.68963 0.45415,-2.08571 V 88.951352 q 0,-0.891474 -0.30277,-1.412902 -0.20184,-0.353225 -0.48779,-0.555069 -0.26912,-0.201843 -0.79055,-0.386866 z"
             id="path23533" />
        </g>
      </g>
      <g
         aria-label="PARA SEMPRE"
         id="text9771-8"
         style="font-size:10.5833px;line-height:1.25;font-family:'Rockwell Extra Bold';-inkscape-font-specification:'Rockwell Extra Bold, ';fill:#ff0000;stroke-width:0.264583">
        <path
           d="m 60.152429,138.318 v 1.34875 h 0.542601 q 0.568439,0 0.82682,-0.13436 0.248046,-0.13436 0.248046,-0.52193 0,-0.25322 -0.134358,-0.42892 -0.129191,-0.17053 -0.346231,-0.21704 -0.206705,-0.0465 -0.702797,-0.0465 z m 0.723468,5.61204 h -4.201281 v -1.72082 h 0.69763 v -3.74653 h -0.69763 v -1.72082 h 4.407986 q 1.519282,0 2.222079,0.29455 0.702798,0.29973 1.033526,0.81649 0.330728,0.51676 0.330728,1.13171 0,0.75964 -0.39274,1.2609 -0.392739,0.50643 -1.038693,0.7338 -0.635618,0.22221 -1.963698,0.22221 h -1.121375 v 1.00769 h 0.723468 z"
           id="path23536" />
        <path
           d="m 67.878032,138.56604 -0.67696,1.98954 h 1.28674 z m -0.67696,5.364 H 64.35371 v -1.72082 h 0.547769 l 1.34875,-3.74653 h -0.578774 v -1.72082 h 5.167627 v 1.72082 h -0.578774 l 1.374588,3.74653 h 0.527098 v 1.72082 h -3.751697 v -1.57613 h 0.630451 l -0.273885,-0.90433 h -1.839675 l -0.315225,0.90433 h 0.589109 z"
           id="path23538" />
        <path
           d="m 76.104894,138.318 v 1.36942 h 0.310057 q 0.60978,0 0.826821,-0.0362 0.232543,-0.0362 0.392739,-0.2067 0.160197,-0.1602 0.160197,-0.43925 0,-0.27905 -0.160197,-0.44442 -0.160196,-0.17053 -0.408242,-0.2067 -0.237711,-0.0362 -0.868161,-0.0362 z m 0.542601,5.61204 h -3.906726 v -1.72082 h 0.583942 v -3.74653 h -0.583942 v -1.72082 h 3.906726 q 0.527098,0 0.976681,0.0207 0.449584,0.0155 0.769977,0.0517 0.320392,0.031 0.589109,0.0879 0.754474,0.16019 1.224728,0.69763 0.475421,0.54776 0.475421,1.2919 0,0.55811 -0.289387,1.01286 -0.289387,0.44958 -0.759641,0.66145 l 0.992184,1.64331 h 0.516763 v 1.72082 h -2.588981 l -1.565791,-2.93521 h -0.883664 v 1.21439 h 0.542601 z"
           id="path23540" />
        <path
           d="m 84.957039,138.56604 -0.676959,1.98954 h 1.286739 z m -0.676959,5.364 h -2.847363 v -1.72082 h 0.547769 l 1.34875,-3.74653 h -0.578774 v -1.72082 h 5.167627 v 1.72082 h -0.578774 l 1.374588,3.74653 h 0.527098 v 1.72082 h -3.751697 v -1.57613 h 0.630451 l -0.273884,-0.90433 h -1.839676 l -0.315225,0.90433 h 0.58911 z"
           id="path23542" />
        <path
           d="m 94.098571,143.93004 h -1.617467 v -2.30476 h 1.617467 q 0.289388,0.9405 1.09037,0.9405 0.578774,0 0.578774,-0.46508 0,-0.24288 -0.201538,-0.40308 -0.21704,-0.1757 -0.914669,-0.48575 -0.878497,-0.39791 -1.291907,-0.6873 -0.387572,-0.26355 -0.661456,-0.72863 -0.273885,-0.45992 -0.273885,-1.01803 0,-1.00252 0.651121,-1.56579 0.645954,-0.56327 1.591629,-0.56327 0.945676,0 1.601965,0.53744 v -0.44442 h 1.627802 v 2.04638 h -1.607132 q -0.294555,-0.84749 -1.04386,-0.84749 -0.527098,0 -0.527098,0.44958 0,0.21704 0.149861,0.32556 0.144693,0.11369 0.93534,0.50126 1.059364,0.5271 1.41593,0.76998 0.180867,0.11885 0.366902,0.33589 0.191202,0.21188 0.315225,0.43925 0.284219,0.50643 0.284219,1.09554 0,0.90433 -0.671791,1.52962 -0.671792,0.63562 -1.694982,0.63562 -0.950843,0 -1.72082,-0.56328 z"
           id="path23544" />
        <path
           d="m 105.9531,143.93004 h -6.857437 v -1.72082 h 0.558104 v -3.74653 h -0.568439 v -1.72082 h 6.867772 v 2.29959 h -1.88618 v -0.57877 h -1.63297 v 1.10587 h 1.4211 v 1.46244 h -1.4211 v 1.17822 h 1.63297 v -0.57878 h 1.88618 z"
           id="path23546" />
        <path
           d="m 109.79782,143.93004 h -2.78535 v -1.72082 h 0.55294 v -3.74653 h -0.56844 v -1.72082 h 4.33564 l 1.05936,2.77502 1.0852,-2.77502 h 4.3098 v 1.72082 h -0.56327 v 3.74653 h 0.57877 v 1.72082 h -3.75169 v -1.72082 h 0.5736 v -4.01525 l -2.1704,5.73607 h -1.07487 l -2.14973,-5.68439 v 3.96357 h 0.56844 z"
           id="path23548" />
        <path
           d="m 122.17945,138.318 v 1.34875 h 0.5426 q 0.56844,0 0.82682,-0.13436 0.24805,-0.13436 0.24805,-0.52193 0,-0.25322 -0.13436,-0.42892 -0.12919,-0.17053 -0.34623,-0.21704 -0.2067,-0.0465 -0.7028,-0.0465 z m 0.72347,5.61204 h -4.20128 v -1.72082 h 0.69763 v -3.74653 h -0.69763 v -1.72082 h 4.40799 q 1.51928,0 2.22207,0.29455 0.7028,0.29973 1.03353,0.81649 0.33073,0.51676 0.33073,1.13171 0,0.75964 -0.39274,1.2609 -0.39274,0.50643 -1.03869,0.7338 -0.63562,0.22221 -1.9637,0.22221 h -1.12138 v 1.00769 h 0.72347 z"
           id="path23550" />
        <path
           d="m 130.77838,138.318 v 1.36942 h 0.31006 q 0.60978,0 0.82682,-0.0362 0.23254,-0.0362 0.39274,-0.2067 0.16019,-0.1602 0.16019,-0.43925 0,-0.27905 -0.16019,-0.44442 -0.1602,-0.17053 -0.40824,-0.2067 -0.23772,-0.0362 -0.86817,-0.0362 z m 0.5426,5.61204 h -3.90672 v -1.72082 h 0.58394 v -3.74653 h -0.58394 v -1.72082 h 3.90672 q 0.5271,0 0.97668,0.0207 0.44959,0.0155 0.76998,0.0517 0.32039,0.031 0.58911,0.0879 0.75447,0.16019 1.22473,0.69763 0.47542,0.54776 0.47542,1.2919 0,0.55811 -0.28939,1.01286 -0.28939,0.44958 -0.75964,0.66145 l 0.99218,1.64331 h 0.51677 v 1.72082 h -2.58898 l -1.5658,-2.93521 h -0.88366 v 1.21439 h 0.5426 z"
           id="path23552" />
        <path
           d="m 143.32538,143.93004 h -6.85744 v -1.72082 h 0.55811 v -3.74653 h -0.56844 v -1.72082 h 6.86777 v 2.29959 h -1.88618 v -0.57877 h -1.63297 v 1.10587 h 1.4211 v 1.46244 h -1.4211 v 1.17822 h 1.63297 v -0.57878 h 1.88618 z"
           id="path23554" />
      </g>
      <g
         aria-label="PARA TODOS"
         id="text9771-0"
         style="font-size:10.5833px;line-height:1.25;font-family:'Rockwell Extra Bold';-inkscape-font-specification:'Rockwell Extra Bold, ';fill:#ff0000;stroke-width:0.264583">
        <path
           d="m 65.550016,57.235232 v 1.348751 h 0.542601 q 0.568439,0 0.82682,-0.134359 0.248046,-0.134358 0.248046,-0.52193 0,-0.253214 -0.134358,-0.428913 -0.129191,-0.170532 -0.346231,-0.21704 -0.206705,-0.04651 -0.702797,-0.04651 z m 0.723468,5.612043 h -4.201281 v -1.72082 h 0.69763 v -3.746529 h -0.69763 v -1.72082 h 4.407986 q 1.519282,0 2.222079,0.294555 0.702798,0.299722 1.033526,0.816485 0.330728,0.516762 0.330728,1.13171 0,0.759641 -0.39274,1.260901 -0.39274,0.506427 -1.038693,0.733803 -0.635618,0.222208 -1.963698,0.222208 h -1.121375 v 1.007687 h 0.723468 z"
           id="path23557" />
        <path
           d="m 73.275618,57.483278 -0.676959,1.989536 h 1.286739 z m -0.676959,5.363997 h -2.847362 v -1.72082 h 0.547768 l 1.348751,-3.746529 h -0.578774 v -1.72082 h 5.167627 v 1.72082 h -0.578775 l 1.374589,3.746529 h 0.527098 v 1.72082 h -3.751697 v -1.576126 h 0.63045 L 74.16445,60.366814 h -1.839675 l -0.315225,0.904335 h 0.589109 z"
           id="path23559" />
        <path
           d="m 81.502481,57.235232 v 1.369421 h 0.310057 q 0.60978,0 0.826821,-0.03617 0.232543,-0.03617 0.392739,-0.206705 0.160197,-0.160197 0.160197,-0.439249 0,-0.279051 -0.160197,-0.444415 -0.160196,-0.170532 -0.408242,-0.206706 -0.237711,-0.03617 -0.868162,-0.03617 z m 0.542601,5.612043 h -3.906726 v -1.72082 h 0.583942 v -3.746529 h -0.583942 v -1.72082 h 3.906726 q 0.527097,0 0.976681,0.02067 0.449584,0.0155 0.769976,0.05168 0.320393,0.03101 0.58911,0.08785 0.754473,0.160197 1.224727,0.69763 0.475422,0.547768 0.475422,1.291907 0,0.558103 -0.289387,1.012855 -0.289387,0.449583 -0.759641,0.661456 l 0.992184,1.643305 h 0.516763 v 1.72082 h -2.588981 l -1.565791,-2.935212 h -0.883664 v 1.214392 h 0.542601 z"
           id="path23561" />
        <path
           d="m 90.354626,57.483278 -0.67696,1.989536 h 1.28674 z m -0.67696,5.363997 h -2.847362 v -1.72082 h 0.547769 l 1.34875,-3.746529 h -0.578774 v -1.72082 h 5.167627 v 1.72082 h -0.578775 l 1.374589,3.746529 h 0.527098 v 1.72082 h -3.751697 v -1.576126 h 0.630451 l -0.273885,-0.904335 h -1.839675 l -0.315225,0.904335 h 0.589109 z"
           id="path23563" />
        <path
           d="m 102.59673,62.847275 h -4.035916 v -1.72082 h 0.620115 v -3.746529 h -0.82682 v 1.307409 h -1.348751 v -3.028229 h 7.126162 v 3.028229 h -1.34875 v -1.307409 h -0.82166 v 3.746529 h 0.63562 z"
           id="path23565" />
        <path
           d="m 107.81603,59.235104 q 0,1.198889 0.23255,1.617467 0.22221,0.423745 0.69763,0.423745 0.47025,0 0.70279,-0.408242 0.23255,-0.41341 0.23255,-1.63297 0,-1.183387 -0.22738,-1.6123 -0.22221,-0.423745 -0.70796,-0.423745 -0.46509,0 -0.69763,0.408242 -0.23255,0.408243 -0.23255,1.627803 z m -3.12124,0 q 0,-0.899167 0.43925,-1.741491 0.43408,-0.837155 1.34875,-1.410762 0.32556,-0.201537 0.66662,-0.320393 0.34623,-0.118855 0.74931,-0.180866 0.40307,-0.06718 0.84749,-0.06718 1.93269,0 2.99205,1.131711 0.5271,0.558103 0.79582,1.209224 0.26871,0.651121 0.26871,1.379757 0,1.503779 -1.09553,2.614819 -1.09554,1.11104 -2.96105,1.11104 -1.8035,0 -2.92488,-1.043861 -1.12654,-1.038693 -1.12654,-2.681998 z"
           id="path23567" />
        <path
           d="m 117.21078,57.379926 v 3.746529 h 0.26355 q 0.98185,0 1.2764,-0.52193 0.28939,-0.521931 0.28939,-1.312577 0,-0.475422 -0.12402,-0.940509 -0.12919,-0.465086 -0.45475,-0.7183 -0.3204,-0.253213 -1.14722,-0.253213 z m 0,5.467349 h -3.34345 v -1.72082 h 0.56327 v -3.746529 h -0.56327 v -1.72082 h 3.44164 q 1.17822,0 1.92235,0.144693 0.74931,0.144694 1.41077,0.594278 0.65628,0.454751 1.03352,1.229895 0.18604,0.372069 0.28422,0.795814 0.0982,0.423746 0.0982,0.888832 0,0.935341 -0.39791,1.705317 -0.39274,0.764809 -0.99735,1.173051 -0.58911,0.408243 -1.29191,0.532266 -0.69763,0.124023 -2.16007,0.124023 z"
           id="path23569" />
        <path
           d="m 126.23346,59.235104 q 0,1.198889 0.23254,1.617467 0.22221,0.423745 0.69763,0.423745 0.47025,0 0.7028,-0.408242 0.23254,-0.41341 0.23254,-1.63297 0,-1.183387 -0.22737,-1.6123 -0.22221,-0.423745 -0.70797,-0.423745 -0.46509,0 -0.69763,0.408242 -0.23254,0.408243 -0.23254,1.627803 z m -3.12125,0 q 0,-0.899167 0.43925,-1.741491 0.43408,-0.837155 1.34875,-1.410762 0.32556,-0.201537 0.66662,-0.320393 0.34624,-0.118855 0.74931,-0.180866 0.40307,-0.06718 0.84749,-0.06718 1.93269,0 2.99206,1.131711 0.52709,0.558103 0.79581,1.209224 0.26872,0.651121 0.26872,1.379757 0,1.503779 -1.09554,2.614819 -1.09554,1.11104 -2.96105,1.11104 -1.8035,0 -2.92488,-1.043861 -1.12654,-1.038693 -1.12654,-2.681998 z"
           id="path23571" />
        <path
           d="m 133.84021,62.847275 h -1.61747 v -2.304762 h 1.61747 q 0.28938,0.940508 1.09037,0.940508 0.57877,0 0.57877,-0.465086 0,-0.242879 -0.20154,-0.403075 -0.21704,-0.175699 -0.91467,-0.485757 -0.87849,-0.397907 -1.2919,-0.687294 -0.38758,-0.263549 -0.66146,-0.728636 -0.27389,-0.459918 -0.27389,-1.018022 0,-1.00252 0.65113,-1.565791 0.64595,-0.563271 1.59162,-0.563271 0.94568,0 1.60197,0.537433 v -0.444416 h 1.6278 v 2.04638 h -1.60713 q -0.29456,-0.847491 -1.04386,-0.847491 -0.5271,0 -0.5271,0.449584 0,0.21704 0.14986,0.32556 0.1447,0.113688 0.93534,0.50126 1.05937,0.527098 1.41593,0.769977 0.18087,0.118855 0.3669,0.335895 0.19121,0.211873 0.31523,0.439249 0.28422,0.506427 0.28422,1.095536 0,0.904335 -0.67179,1.529618 -0.67179,0.635618 -1.69498,0.635618 -0.95085,0 -1.72082,-0.563271 z"
           id="path23573" />
      </g>
    </g>
  </g>
</svg>
